<svg xmlns="http://www.w3.org/2000/svg" width="422.634" height="119.891" viewBox="0 0 422.634 119.891">
  <g id="Grupo_548" data-name="Grupo 548" transform="translate(6637.634 -8744.343)">
    <g id="Grupo_547" data-name="Grupo 547">
      <path id="Caminho_6794" data-name="Caminho 6794" d="M336.59,295.66l6.63-15.85c.3-.71-2.78-4-2.29-5s10.43.59,9.91,2.6c-.32,1.22-3.34,2.23-3.55,2.79-.35,1-3,17.48-3,17.48Z" transform="translate(-6910.68 8478.623)" fill="#ca3c4e"/>
      <path id="Caminho_6795" data-name="Caminho 6795" d="M341.88,274.91s4.9,2.28,8.27,1.9" transform="translate(-6910.68 8478.623)" fill="#263238"/>
      <path id="Caminho_6796" data-name="Caminho 6796" d="M336.59,295.66l6.63-15.85c.3-.71-2.78-4-2.29-5s10.43.59,9.91,2.6c-.32,1.22-3.34,2.23-3.55,2.79-.35,1-3,17.48-3,17.48Z" transform="translate(-6910.68 8478.623)" opacity="0.1"/>
      <path id="Caminho_6797" data-name="Caminho 6797" d="M313.79,301.61s-6.22-15.19-6.52-15.9-4.79-.86-5.15-1.91,7.79-7,8.84-5.17c.64,1.08-.79,3.93-.53,4.48.44.93,10.23,14.49,10.23,14.49Z" transform="translate(-6910.68 8478.623)" fill="#ca3c4e"/>
      <path id="Caminho_6798" data-name="Caminho 6798" d="M302.85,283.19s5.09-1.85,7.2-4.5" transform="translate(-6910.68 8478.623)" fill="#263238"/>
      <path id="Caminho_6799" data-name="Caminho 6799" d="M313.79,301.61s-6.22-15.19-6.52-15.9-4.79-.86-5.15-1.91,7.79-7,8.84-5.17c.64,1.08-.79,3.93-.53,4.48.44.93,10.23,14.49,10.23,14.49Z" transform="translate(-6910.68 8478.623)" opacity="0.1"/>
      <path id="Caminho_6800" data-name="Caminho 6800" d="M301.88,321.94,286,315.3c-.71-.3-4,2.78-5,2.29s.58-10.43,2.6-9.91c1.21.32,2.22,3.35,2.78,3.55,1,.35,17.49,3,17.49,3Z" transform="translate(-6910.68 8478.623)" fill="#ca3c4e"/>
      <path id="Caminho_6801" data-name="Caminho 6801" d="M281.12,316.64s2.29-4.9,1.9-8.27" transform="translate(-6910.68 8478.623)" fill="#263238"/>
      <path id="Caminho_6802" data-name="Caminho 6802" d="M301.88,321.94,286,315.3c-.71-.3-4,2.78-5,2.29s.58-10.43,2.6-9.91c1.21.32,2.22,3.35,2.78,3.55,1,.35,17.49,3,17.49,3Z" transform="translate(-6910.68 8478.623)" opacity="0.1"/>
      <path id="Caminho_6803" data-name="Caminho 6803" d="M307.82,344.73l-15.9,6.52c-.71.29-.86,4.79-1.91,5.15s-7-7.79-5.17-8.84c1.08-.64,3.94.79,4.48.53.94-.43,14.49-10.23,14.49-10.23Z" transform="translate(-6910.68 8478.623)" fill="#ca3c4e"/>
      <path id="Caminho_6804" data-name="Caminho 6804" d="M289.41,355.67s-1.86-5.09-4.51-7.2" transform="translate(-6910.68 8478.623)" fill="#263238"/>
      <path id="Caminho_6805" data-name="Caminho 6805" d="M307.82,344.73l-15.9,6.52c-.71.29-.86,4.79-1.91,5.15s-7-7.79-5.17-8.84c1.08-.64,3.94.79,4.48.53.94-.43,14.49-10.23,14.49-10.23Z" transform="translate(-6910.68 8478.623)" opacity="0.1"/>
      <path id="Caminho_6806" data-name="Caminho 6806" d="M328.15,356.64l-6.64,15.86c-.3.71,2.78,4,2.3,5s-10.44-.58-9.92-2.6c.32-1.21,3.35-2.22,3.55-2.78.36-1,3-17.48,3-17.48Z" transform="translate(-6910.68 8478.623)" fill="#ca3c4e"/>
      <path id="Caminho_6807" data-name="Caminho 6807" d="M322.86,377.4s-4.91-2.29-8.28-1.9" transform="translate(-6910.68 8478.623)" fill="#263238"/>
      <path id="Caminho_6808" data-name="Caminho 6808" d="M328.15,356.64l-6.64,15.86c-.3.71,2.78,4,2.3,5s-10.44-.58-9.92-2.6c.32-1.21,3.35-2.22,3.55-2.78.36-1,3-17.48,3-17.48Z" transform="translate(-6910.68 8478.623)" opacity="0.1"/>
      <path id="Caminho_6809" data-name="Caminho 6809" d="M350.94,350.7l6.52,15.9c.29.71,4.79.86,5.16,1.91s-7.79,7-8.85,5.17c-.64-1.08.79-3.93.54-4.48-.44-.94-10.24-14.49-10.24-14.49Z" transform="translate(-6910.68 8478.623)" fill="#ca3c4e"/>
      <path id="Caminho_6810" data-name="Caminho 6810" d="M361.88,369.12s-5.09,1.85-7.2,4.5" transform="translate(-6910.68 8478.623)" fill="#263238"/>
      <path id="Caminho_6811" data-name="Caminho 6811" d="M350.94,350.7l6.52,15.9c.29.71,4.79.86,5.16,1.91s-7.79,7-8.85,5.17c-.64-1.08.79-3.93.54-4.48-.44-.94-10.24-14.49-10.24-14.49Z" transform="translate(-6910.68 8478.623)" opacity="0.1"/>
      <path id="Caminho_6812" data-name="Caminho 6812" d="M362.86,330.37,378.71,337c.71.3,4-2.78,5-2.29s-.59,10.43-2.6,9.91c-1.22-.32-2.22-3.35-2.79-3.55-1-.35-17.48-3-17.48-3Z" transform="translate(-6910.68 8478.623)" fill="#ca3c4e"/>
      <path id="Caminho_6813" data-name="Caminho 6813" d="M383.61,335.66s-2.28,4.91-1.9,8.28" transform="translate(-6910.68 8478.623)" fill="#263238"/>
      <path id="Caminho_6814" data-name="Caminho 6814" d="M362.86,330.37,378.71,337c.71.3,4-2.78,5-2.29s-.59,10.43-2.6,9.91c-1.22-.32-2.22-3.35-2.79-3.55-1-.35-17.48-3-17.48-3Z" transform="translate(-6910.68 8478.623)" opacity="0.1"/>
      <path id="Caminho_6815" data-name="Caminho 6815" d="M356.91,307.58l15.9-6.52c.72-.29.86-4.79,1.91-5.16s7,7.8,5.17,8.85c-1.08.64-3.93-.79-4.48-.54-.93.44-14.49,10.24-14.49,10.24Z" transform="translate(-6910.68 8478.623)" fill="#ca3c4e"/>
      <path id="Caminho_6816" data-name="Caminho 6816" d="M375.33,296.64s1.85,5.09,4.5,7.2" transform="translate(-6910.68 8478.623)" fill="#263238"/>
      <path id="Caminho_6817" data-name="Caminho 6817" d="M356.91,307.58l15.9-6.52c.72-.29.86-4.79,1.91-5.16s7,7.8,5.17,8.85c-1.08.64-3.93-.79-4.48-.54-.93.44-14.49,10.24-14.49,10.24Z" transform="translate(-6910.68 8478.623)" opacity="0.1"/>
      <path id="Caminho_6818" data-name="Caminho 6818" d="M332.55,294s5.33-22.22,5.54-23-3.25-3.65-2.89-4.71,10.48-.67,10.2,1.41c-.16,1.25-3.07,2.62-3.2,3.21-.24,1-1.73,24.15-1.73,24.15Z" transform="translate(-6910.68 8478.623)" fill="#ca3c4e"/>
      <path id="Caminho_6819" data-name="Caminho 6819" d="M336.16,266.31s5.17,1.7,8.49.91" transform="translate(-6910.68 8478.623)" fill="#263238"/>
      <path id="Caminho_6820" data-name="Caminho 6820" d="M310.29,303.58s-12-19.48-12.32-20.16-4.89-.28-5.38-1.29,6.94-7.88,8.21-6.21c.76,1-.32,4,0,4.53.55.88,15.86,18.3,15.86,18.3Z" transform="translate(-6910.68 8478.623)" fill="#ca3c4e"/>
      <path id="Caminho_6821" data-name="Caminho 6821" d="M293.25,281.44s4.86-2.45,6.64-5.36" transform="translate(-6910.68 8478.623)" fill="#263238"/>
      <path id="Caminho_6822" data-name="Caminho 6822" d="M301.31,326.09s-22.22-5.33-23-5.54-3.65,3.25-4.71,2.89S273,313,275,313.24c1.25.17,2.62,3.07,3.21,3.2,1,.24,24.15,1.73,24.15,1.73Z" transform="translate(-6910.68 8478.623)" fill="#ca3c4e"/>
      <path id="Caminho_6823" data-name="Caminho 6823" d="M273.61,322.48s1.7-5.17.91-8.48" transform="translate(-6910.68 8478.623)" fill="#263238"/>
      <path id="Caminho_6824" data-name="Caminho 6824" d="M310.88,348.35s-19.48,11.95-20.16,12.33-.28,4.88-1.29,5.37-7.88-6.94-6.21-8.2c1-.77,4,.31,4.53,0,.88-.55,18.3-15.86,18.3-15.86Z" transform="translate(-6910.68 8478.623)" fill="#ca3c4e"/>
      <path id="Caminho_6825" data-name="Caminho 6825" d="M288.74,365.39s-2.45-4.86-5.36-6.64" transform="translate(-6910.68 8478.623)" fill="#263238"/>
      <path id="Caminho_6826" data-name="Caminho 6826" d="M333.39,357.33s-5.33,22.22-5.54,23,3.25,3.65,2.89,4.71-10.48.67-10.2-1.41c.17-1.24,3.07-2.61,3.2-3.2.24-1,1.73-24.16,1.73-24.16Z" transform="translate(-6910.68 8478.623)" fill="#ca3c4e"/>
      <path id="Caminho_6827" data-name="Caminho 6827" d="M329.78,385s-5.17-1.69-8.48-.91" transform="translate(-6910.68 8478.623)" fill="#263238"/>
      <path id="Caminho_6828" data-name="Caminho 6828" d="M355.65,347.76s12,19.48,12.33,20.16,4.88.28,5.37,1.29-6.94,7.88-8.2,6.22c-.77-1,.31-4,0-4.54-.55-.88-15.86-18.3-15.86-18.3Z" transform="translate(-6910.68 8478.623)" fill="#ca3c4e"/>
      <path id="Caminho_6829" data-name="Caminho 6829" d="M372.69,369.9s-4.86,2.46-6.64,5.36" transform="translate(-6910.68 8478.623)" fill="#263238"/>
      <path id="Caminho_6830" data-name="Caminho 6830" d="M364.63,325.25s22.22,5.33,23,5.54,3.65-3.25,4.71-2.89.67,10.48-1.41,10.2c-1.24-.16-2.61-3.07-3.2-3.2-1-.24-24.16-1.73-24.16-1.73Z" transform="translate(-6910.68 8478.623)" fill="#ca3c4e"/>
      <path id="Caminho_6832" data-name="Caminho 6832" d="M355.06,303s19.48-11.95,20.16-12.32.28-4.89,1.29-5.38,7.88,6.94,6.22,8.21c-1,.76-4-.32-4.54,0-.88.55-18.3,15.86-18.3,15.86Z" transform="translate(-6910.68 8478.623)" fill="#ca3c4e"/>
      <path id="Caminho_6833" data-name="Caminho 6833" d="M377.2,286s2.46,4.86,5.36,6.64" transform="translate(-6910.68 8478.623)" fill="#263238"/>
      <path id="Caminho_6834" data-name="Caminho 6834" d="M370.86,334.38c-4.89,20.89-24.73,35.09-46,30.11-12.74-3-23.19-10.24-28.24-21-3.37-7.16-4.33-15.86-2-25.88,5.88-25.06,27.66-35.68,48.43-30.81a35.78,35.78,0,0,1,21.08,13.55C371.53,310.27,373.43,323.44,370.86,334.38Z" transform="translate(-6910.68 8478.623)" fill="#ca3c4e"/>
      <path id="Caminho_6835" data-name="Caminho 6835" d="M370.86,334.38c-4.89,20.89-24.73,35.09-46,30.11-12.74-3-23.19-10.24-28.24-21,10.43,7.72,29.3,17.87,48.19,8.91,23.13-11,25.92-34.66,19.33-52.05C371.53,310.27,373.43,323.44,370.86,334.38Z" transform="translate(-6910.68 8478.623)" opacity="0.1"/>
      <path id="Caminho_6836" data-name="Caminho 6836" d="M329.25,297l-8.84,2.09a9.884,9.884,0,0,0-.07-1c-.3-3.69-1.3-16.26-1.37-17s-4.93-2.53-5-3.8c0-.57,2.21-1.64,4.68-2.44,3-1,6.38-1.5,6.68-.24s-2.18,4-2.07,4.7C323.44,280.46,329.25,297,329.25,297Z" transform="translate(-6910.68 8478.623)" fill="#ca3c4e"/>
      <path id="Caminho_6837" data-name="Caminho 6837" d="M315,276.87s6.16-.32,9.34-2.51Z" transform="translate(-6910.68 8478.623)" fill="#263238"/>
      <path id="Caminho_6838" data-name="Caminho 6838" d="M320.34,298.09c-.3-3.69-1.3-16.26-1.37-17s-4.93-2.53-5-3.8c0-.57,2.21-1.64,4.68-2.44a6.84,6.84,0,0,0-2.11,1.6,1.138,1.138,0,0,0-.13.31c-.11.35.06.64.45.91,1,.73,3.22,1.38,3.5,2.31S320.37,297.56,320.34,298.09Z" transform="translate(-6910.68 8478.623)" opacity="0.1"/>
      <path id="Caminho_6839" data-name="Caminho 6839" d="M309.27,306.78l-4.77,7.71a3.694,3.694,0,0,0-.32-.27l-.05-.05-13.39-11.4c-.68-.57-5.29,1.69-6.22.82-.63-.59,1.55-5.65,3.64-8.34.95-1.23,1.86-2,2.5-1.57,1.21.73,1.31,4.38,1.85,4.78C293.45,299.17,309.27,306.78,309.27,306.78Z" transform="translate(-6910.68 8478.623)" fill="#ca3c4e"/>
      <path id="Caminho_6840" data-name="Caminho 6840" d="M284.94,302.6s4.13-4.58,4.83-8.38Z" transform="translate(-6910.68 8478.623)" fill="#263238"/>
      <path id="Caminho_6841" data-name="Caminho 6841" d="M304.13,314.17l-13.39-11.4c-.68-.57-5.29,1.69-6.22.82-.63-.59,1.55-5.65,3.64-8.34a15.829,15.829,0,0,0-1.48,4.32,3.741,3.741,0,0,0,0,.92c0,.42.15.67.4.7,1.07.08,3-1.19,4.18-.84S303.31,313.23,304.13,314.17Z" transform="translate(-6910.68 8478.623)" opacity="0.1"/>
      <path id="Caminho_6842" data-name="Caminho 6842" d="M302,327.8l2.08,8.83h-.05c-1,.09-17.13,1.37-18,1.45s-2.53,4.93-3.78,5-4.43-9.18-3.12-11a.71.71,0,0,1,.44-.31c1.38-.33,4,2.17,4.69,2.08C285.48,333.61,302,327.8,302,327.8Z" transform="translate(-6910.68 8478.623)" fill="#ca3c4e"/>
      <path id="Caminho_6843" data-name="Caminho 6843" d="M281.88,342.05s-.32-6.16-2.51-9.35Z" transform="translate(-6910.68 8478.623)" fill="#263238"/>
      <path id="Caminho_6844" data-name="Caminho 6844" d="M304.07,336.62c-1,.09-17.13,1.37-18,1.45s-2.53,4.93-3.78,5-4.43-9.18-3.12-11c-.62,2.42.65,5.34,1.84,6.83a3.609,3.609,0,0,0,.58.63c.34.3.65.43.84.34.93-.45,2-2.86,3.42-3.11S303.08,336.61,304.07,336.62Z" transform="translate(-6910.68 8478.623)" opacity="0.1"/>
      <path id="Caminho_6845" data-name="Caminho 6845" d="M307.77,366.32c-.42.48.67,3.06,1,4.79a1.79,1.79,0,0,1-.12,1.42c-.86.91-11.17-4.13-9.93-6.14.75-1.23,4.38-1.31,4.8-1.85s3.56-7,5.84-11.66v-.05c1.38-2.82,2.45-5.05,2.45-5.05l7.7,4.77S308.34,365.64,307.77,366.32Z" transform="translate(-6910.68 8478.623)" fill="#ca3c4e"/>
      <path id="Caminho_6846" data-name="Caminho 6846" d="M307.61,372.1s-4.58-4.12-8.38-4.83Z" transform="translate(-6910.68 8478.623)" fill="#263238"/>
      <path id="Caminho_6847" data-name="Caminho 6847" d="M308.73,371.11a1.79,1.79,0,0,1-.12,1.42c-.86.91-11.17-4.13-9.93-6.14.75-1.23,4.38-1.31,4.8-1.85s3.56-7,5.84-11.66c-1.32,4.62-4,12.24-4.51,12.65-.73.57-2.92,1.09-2.89,2.21a1.36,1.36,0,0,0,.36.66,11.7,11.7,0,0,0,2.14,1.87,14.149,14.149,0,0,0,2.59,1.49,1.782,1.782,0,0,0,.38.14c.47.16.83.19,1,0A1.3,1.3,0,0,0,308.73,371.11Z" transform="translate(-6910.68 8478.623)" opacity="0.1"/>
      <path id="Caminho_6848" data-name="Caminho 6848" d="M348.06,374.75c0,.3-.63.75-1.59,1.23-3,1.49-9.35,3.21-9.77,1.46-.33-1.4,2.18-4,2.08-4.71s-3-9.07-4.69-14h0c-.74-2.16-1.28-3.68-1.28-3.68l8.82-2.08,1.44,18C343.16,371.82,348,373.48,348.06,374.75Z" transform="translate(-6910.68 8478.623)" fill="#ca3c4e"/>
      <path id="Caminho_6849" data-name="Caminho 6849" d="M347.06,375.16s-6.16.33-9.35,2.51Z" transform="translate(-6910.68 8478.623)" fill="#263238"/>
      <path id="Caminho_6850" data-name="Caminho 6850" d="M346.47,376c-3,1.49-9.35,3.21-9.77,1.46-.33-1.4,2.18-4,2.08-4.71s-3-9.07-4.69-14c2.07,4.52,6.08,13.31,6.06,13.74s-1.7,3.48-.89,4.15a.791.791,0,0,0,.29.12,4.54,4.54,0,0,0,1.37.1,30.526,30.526,0,0,0,5.55-.86Z" transform="translate(-6910.68 8478.623)" opacity="0.1"/>
      <path id="Caminho_6851" data-name="Caminho 6851" d="M375.76,353.84c-1.42,2.66-3.31,5.17-4.37,4.52s-1.3-4.38-1.85-4.79c-.81-.61-12.43-6.24-15.83-7.87h0c-.59-.27-.92-.44-.92-.44l4.76-7.7,13.77,11.72c.68.56,5.28-1.7,6.21-.84C378,348.84,377.06,351.4,375.76,353.84Z" transform="translate(-6910.68 8478.623)" fill="#ca3c4e"/>
      <path id="Caminho_6852" data-name="Caminho 6852" d="M377.11,349.43s-4.13,4.59-4.83,8.38Z" transform="translate(-6910.68 8478.623)" fill="#263238"/>
      <path id="Caminho_6853" data-name="Caminho 6853" d="M375.76,353.84c-1.42,2.66-3.31,5.17-4.37,4.52s-1.3-4.38-1.85-4.79c-.81-.61-12.43-6.24-15.83-7.87h0s17,5.88,17.27,6.66.74,4,1.76,3.88a1.42,1.42,0,0,0,.61-.26A14.421,14.421,0,0,0,375.76,353.84Z" transform="translate(-6910.68 8478.623)" opacity="0.1"/>
      <path id="Caminho_6854" data-name="Caminho 6854" d="M382.44,320.34c-.74.18-1.83-.45-2.79-1.06s-1.6-1.06-1.92-1c-1.16.17-17.72,6-17.72,6l-2.08-8.82,3.71-.3h.05c5.1-.4,13.67-1.08,14.27-1.14.88-.09,2.54-4.94,3.8-5S384.75,319.8,382.44,320.34Z" transform="translate(-6910.68 8478.623)" fill="#ca3c4e"/>
      <path id="Caminho_6855" data-name="Caminho 6855" d="M380.17,310s.32,6.16,2.51,9.34Z" transform="translate(-6910.68 8478.623)" fill="#263238"/>
      <path id="Caminho_6856" data-name="Caminho 6856" d="M382.44,320.34c-.74.18-1.83-.45-2.79-1.06a16.215,16.215,0,0,0,2.19-.43.6.6,0,0,0,.34-.34,1.789,1.789,0,0,0,.12-.61,10,10,0,0,0-1.12-4.17,5.371,5.371,0,0,0-.72-1.14h0c-.23-.25-.43-.38-.61-.34-1.12.29-2.55,3.14-4.22,3.28-1.19.09-9.38-.23-13.94-.41,5.1-.4,13.67-1.08,14.27-1.14.88-.09,2.54-4.94,3.8-5S384.75,319.8,382.44,320.34Z" transform="translate(-6910.68 8478.623)" opacity="0.1"/>
      <path id="Caminho_6857" data-name="Caminho 6857" d="M363.37,285.65c-.74,1.22-4.38,1.3-4.8,1.85-.7.94-8.31,16.75-8.31,16.75l-7.71-4.76s.42-.51,1.13-1.32h0l10.59-12.43c.55-.68-1.71-5.28-.84-6.21.44-.47,3.37.62,5.95,2.07h0C361.84,283,364,284.67,363.37,285.65Z" transform="translate(-6910.68 8478.623)" fill="#ca3c4e"/>
      <path id="Caminho_6858" data-name="Caminho 6858" d="M354.44,279.93s4.59,4.13,8.38,4.83Z" transform="translate(-6910.68 8478.623)" fill="#263238"/>
      <path id="Caminho_6859" data-name="Caminho 6859" d="M359.39,281.58a9.179,9.179,0,0,0-2.77-.4,2,2,0,0,0-.56.07c-.5.13-.8.41-.76.9.08,1.34,1.44,3.52,1,4.41s-12.16,11.18-12.64,11.59l10.59-12.43c.55-.68-1.71-5.28-.84-6.21C353.88,279,356.81,280.13,359.39,281.58Z" transform="translate(-6910.68 8478.623)" opacity="0.1"/>
      <g id="Grupo_546" data-name="Grupo 546" transform="translate(-6910.68 8478.623)" opacity="0.1">
        <path id="Caminho_6860" data-name="Caminho 6860" d="M320,349.83c-.38.84-1.84,1-3.24.36s-2.23-1.86-1.84-2.7,1.84-1,3.25-.36S320.43,349,320,349.83Z"/>
        <path id="Caminho_6861" data-name="Caminho 6861" d="M319.11,352.84a9.4,9.4,0,0,1-5.55-2.64,2.94,2.94,0,0,1-.9-3.25c.59-1.5,2-1.45,3.38-1.59a.065.065,0,0,0,0-.13c-2.35-.26-5.15.7-4.72,3.58.5,3.39,4.78,4.8,7.72,4.58C319.35,353.37,319.43,352.89,319.11,352.84Z"/>
        <path id="Caminho_6862" data-name="Caminho 6862" d="M325.36,301.65c.13.92-1.44,1.89-3.49,2.17s-3.83-.25-3.95-1.17,1.44-1.89,3.5-2.17S325.24,300.73,325.36,301.65Z"/>
        <path id="Caminho_6863" data-name="Caminho 6863" d="M320,305.77a8.34,8.34,0,0,1-3.07-1,2.29,2.29,0,0,1-.61-3.33c1.06-1.7,3.14-2.44,5-2.73a.09.09,0,1,0,0-.18c-2.34.13-5.83,1.27-6.59,3.78-1,3.24,3,3.86,5.28,3.83C320.27,306.14,320.24,305.8,320,305.77Z"/>
        <path id="Caminho_6864" data-name="Caminho 6864" d="M354.26,313.33c0,.93-1.3,1.65-2.84,1.61s-2.78-.82-2.75-1.75,1.29-1.65,2.84-1.61S354.28,312.4,354.26,313.33Z"/>
        <path id="Caminho_6865" data-name="Caminho 6865" d="M351.18,317.06c-1.44-.61-3.22-1-4.33-2.16-2.2-2.35,1.2-3.79,3.06-4.34a.08.08,0,0,0,0-.16c-2,.18-5.09,1.42-4.65,3.94s3.81,3.55,5.91,3.19a.25.25,0,0,0,.01-.47Z"/>
        <path id="Caminho_6866" data-name="Caminho 6866" d="M309.53,339.42c0,.72-1,1.26-2.24,1.2s-2.13-.7-2.1-1.42,1-1.25,2.24-1.19S309.56,338.7,309.53,339.42Z"/>
        <path id="Caminho_6867" data-name="Caminho 6867" d="M307.07,342.25c-1.11-.5-2.48-.81-3.32-1.75-1.66-1.87,1-2.92,2.46-3.31a.06.06,0,1,0,0-.12c-1.56.1-4,1-3.68,3s2.88,2.82,4.51,2.59a.206.206,0,1,0,.03-.41Z"/>
        <path id="Caminho_6868" data-name="Caminho 6868" d="M361.41,340.34c.2,1.14-1.17,2.33-3.07,2.66s-3.59-.33-3.78-1.46,1.17-2.33,3.07-2.66S361.21,339.2,361.41,340.34Z"/>
        <path id="Caminho_6869" data-name="Caminho 6869" d="M354.62,338.44c.05,0,0-.12-.05-.08-1.8,1.35-4.31,3.56-2.51,6a5.39,5.39,0,0,0,6.76,1.07.2.2,0,0,0-.13-.37,9.07,9.07,0,0,1-4.89-.61C350.88,342.94,352.92,340,354.62,338.44Z"/>
      </g>
    </g>
    <text id="COVID_-_19" data-name="COVID - 19" transform="translate(-6500 8768)" fill="#fff" font-size="54" font-family="Roboto-Medium, Roboto" font-weight="500"><tspan x="0" y="57">COVID - 19</tspan></text>
  </g>
</svg>
