<svg xmlns="http://www.w3.org/2000/svg" width="468.82" height="422.475" viewBox="0 0 468.82 422.475">
  <g id="Social_Distancing-pana" data-name="Social Distancing-pana" transform="translate(-15.38 -37.999)">
    <g id="freepik--background-complete--inject-123">
      <path id="Caminho_7073" data-name="Caminho 7073" d="M165.68,84.13c.74-5.44-6.93-9.92-12.71-10.39-2.75-.22-5.61.2-8.21-.71-5.65-2-7.91-9.26-13.42-11.59-4.12-1.73-8.86-.19-12.86,1.82s-7.94,4.54-12.4,4.83c-3.89.25-8.1-1.19-11.5.71-2.53,1.41-3.85,4.32-6.19,6s-5.26,2-8.09,2.2-5.76.18-8.34,1.36-4.71,3.91-4.17,6.69Z" fill="#ebebeb"/>
      <path id="Caminho_7074" data-name="Caminho 7074" d="M462.38,71.78c.86-6.25-8-11.4-14.6-11.93-3.16-.26-6.45.22-9.45-.82-6.49-2.26-9.08-10.65-15.42-13.32-4.74-2-10.19-.22-14.78,2.09S399,53,393.87,53.35c-4.46.28-9.31-1.37-13.21.81-2.91,1.62-4.44,5-7.12,7s-6,2.35-9.3,2.52-6.62.21-9.59,1.57-5.41,4.49-4.8,7.69Z" fill="#ebebeb"/>
      <path id="Caminho_7075" data-name="Caminho 7075" d="M300.23,361.27l-22.7,98.56,9.59-.02,22.75-97.61Z" fill="#e0e0e0"/>
      <path id="Caminho_7076" data-name="Caminho 7076" d="M341.63,361.27l22.78,98.56h9.13l-22.05-98.56Z" fill="#e0e0e0"/>
      <path id="Caminho_7077" data-name="Caminho 7077" d="M284.9,287.24l12.93,67.86h14.69l-13.81-67.86Z" fill="#e0e0e0"/>
      <path id="Caminho_7078" data-name="Caminho 7078" d="M59.79,361.27,41.27,459.83H50.7l19.34-98.56Z" fill="#e0e0e0"/>
      <path id="Caminho_7079" data-name="Caminho 7079" d="M98.72,361.27l21.17,98.02h9.31l-20.44-98.02Z" fill="#e0e0e0"/>
      <path id="Caminho_7080" data-name="Caminho 7080" d="M44.47,287.24,57.39,355.1H72.08L58.27,287.24Z" fill="#e0e0e0"/>
      <path id="Caminho_7081" data-name="Caminho 7081" d="M15.38,281.07l2.65,12.34H312.95l-3.44-12.34Z" fill="#ebebeb"/>
      <path id="Caminho_7082" data-name="Caminho 7082" d="M21.02,305.03l3.11,12.34H317.06l-2.66-12.34Z" fill="#ebebeb"/>
      <path id="Caminho_7083" data-name="Caminho 7083" d="M26.84,329.84l2.9,12.34H321.76L319,329.84Z" fill="#ebebeb"/>
      <rect id="Ret창ngulo_51" data-name="Ret창ngulo 51" width="314.9" height="12.34" transform="translate(49.16 355.1)" fill="#ebebeb"/>
      <path id="Caminho_7084" data-name="Caminho 7084" d="M320.15,144.28c.59-4.28-5.45-7.8-10-8.17-2.16-.17-4.41.16-6.46-.55-4.44-1.55-6.21-7.29-10.54-9.12-3.24-1.36-7-.15-10.11,1.43s-6.24,3.57-9.75,3.8c-3.05.19-6.37-.94-9,.55-2,1.11-3,3.41-4.86,4.76s-4.14,1.6-6.36,1.72-4.53.15-6.56,1.07-3.7,3.08-3.28,5.26Z" fill="#f5f5f5"/>
      <path id="Caminho_7085" data-name="Caminho 7085" d="M227.2,50.82c.41-3-3.79-5.42-6.94-5.68-1.51-.12-3.07.11-4.5-.39-3.09-1.07-4.32-5.06-7.34-6.34-2.25-.95-4.84-.1-7,1s-4.34,2.48-6.78,2.64c-2.12.14-4.43-.65-6.29.38-1.38.78-2.11,2.37-3.38,3.31a8.06,8.06,0,0,1-4.43,1.2,12.52,12.52,0,0,0-4.56.75,3.6,3.6,0,0,0-2.28,3.66Z" fill="#f5f5f5"/>
    </g>
    <g id="freepik--Plants--inject-123">
      <path id="Caminho_7086" data-name="Caminho 7086" d="M40,415.64a8.51,8.51,0,0,1,5.71,3.42,15.09,15.09,0,0,1,2.61,6.26c.85,4.33-.18,9.31-1.68,13.46-4.5-1.95-7-7.06-8.12-9.72-1.76-4.22-2.37-12.91,1.48-13.42" fill="#ffa45e"/>
      <path id="Caminho_7087" data-name="Caminho 7087" d="M52.91,444.38a7.26,7.26,0,0,1,.15-7.28,9.65,9.65,0,0,1,6.09-4.27,4.1,4.1,0,0,1,3.4.39,3.11,3.11,0,0,1,1,3A6.29,6.29,0,0,1,62,439.09c-2.44,2.88-5.33,5.23-9.11,5.29" fill="#ffa45e"/>
      <path id="Caminho_7088" data-name="Caminho 7088" d="M52.47,458.63a5.381,5.381,0,0,1-.14-.9c-.09-.64-.19-1.47-.32-2.46a25.63,25.63,0,0,1,0-8.17,15.55,15.55,0,0,1,3.53-7.35,10.641,10.641,0,0,1,1.86-1.65,6.411,6.411,0,0,1,.58-.36c.13-.07.2-.11.21-.1a16.439,16.439,0,0,0-2.48,2.26,16.06,16.06,0,0,0-3.38,7.26,27.4,27.4,0,0,0-.13,8.09c.09,1,.17,1.88.21,2.47a4.54,4.54,0,0,1,.06.91Z" fill="#263238"/>
      <path id="Caminho_7089" data-name="Caminho 7089" d="M41.05,422.21a2.471,2.471,0,0,1,.16.37c.1.27.24.62.41,1.05.34.92.83,2.26,1.41,3.92,1.18,3.31,2.73,7.91,4.34,13s2.94,9.79,3.87,13.18c.46,1.7.83,3.07,1.07,4l.27,1.1a2.459,2.459,0,0,1,.07.39,2,2,0,0,1-.14-.38l-.32-1.08c-.29-1-.68-2.34-1.17-4-1-3.37-2.36-8-4-13.14s-3.12-9.73-4.24-13.06c-.55-1.64-1-3-1.32-3.95-.15-.44-.26-.8-.35-1.07a1.531,1.531,0,0,1-.06-.33Z" fill="#263238"/>
      <path id="Caminho_7090" data-name="Caminho 7090" d="M47.63,448.86a16.94,16.94,0,0,0-12.59-9c-1.35-.19-3-.07-3.69,1.11s0,2.69.88,3.76a14.52,14.52,0,0,0,15.43,4.54" fill="#ffa45e"/>
      <path id="Caminho_7091" data-name="Caminho 7091" d="M36.87,443.6a4.349,4.349,0,0,1,.85.09,4.952,4.952,0,0,1,1,.18,13.218,13.218,0,0,1,1.29.34,13.235,13.235,0,0,1,1.52.53,17.6,17.6,0,0,1,1.69.77,18.92,18.92,0,0,1,3.5,2.41,18.17,18.17,0,0,1,2.81,3.18,15.284,15.284,0,0,1,1,1.59,14.562,14.562,0,0,1,.7,1.45,12.431,12.431,0,0,1,.46,1.25,8.269,8.269,0,0,1,.27,1,4.51,4.51,0,0,1,.17.83c-.07,0-.32-1.17-1.11-3a14.639,14.639,0,0,0-.72-1.42,14.244,14.244,0,0,0-1-1.54,19.308,19.308,0,0,0-2.78-3.11,20.312,20.312,0,0,0-3.43-2.39,16.2,16.2,0,0,0-1.65-.78,13.549,13.549,0,0,0-1.49-.57C38.08,443.82,36.86,443.67,36.87,443.6Z" fill="#263238"/>
      <path id="Caminho_7092" data-name="Caminho 7092" d="M252.06,439.32c.76-2.95-1.18-5.92-3.35-8.07s-4.77-4.06-5.9-6.9c-1.83-4.59.63-10.54-2.49-14.38-1.84-2.25-5.14-3-6.77-5.41a12.38,12.38,0,0,1-1.47-4.31,43.88,43.88,0,0,0-10.87-20.35,37.83,37.83,0,0,0,4.26,19.61c1.27,2.41,2.82,4.76,3.24,7.45.68,4.37-1.76,8.87-.68,13.16,1.22,4.9,6.73,8.19,7,13.23.23,4.27-3.49,8-3.22,12.28a11.54,11.54,0,0,0,1.9,5.07c3.3,5.48,8.15,9.26,15.5,9.14l9,.31Z" fill="#ffa45e"/>
      <g id="Grupo_6230" data-name="Grupo 6230" opacity="0.3">
        <path id="Caminho_7093" data-name="Caminho 7093" d="M252.06,439.32c.76-2.95-1.18-5.92-3.35-8.07s-4.77-4.06-5.9-6.9c-1.83-4.59.63-10.54-2.49-14.38-1.84-2.25-5.14-3-6.77-5.41a12.38,12.38,0,0,1-1.47-4.31,43.88,43.88,0,0,0-10.87-20.35,37.83,37.83,0,0,0,4.26,19.61c1.27,2.41,2.82,4.76,3.24,7.45.68,4.37-1.76,8.87-.68,13.16,1.22,4.9,6.73,8.19,7,13.23.23,4.27-3.49,8-3.22,12.28a11.54,11.54,0,0,0,1.9,5.07c3.3,5.48,8.15,9.26,15.5,9.14l9,.31Z"/>
      </g>
      <path id="Caminho_7094" data-name="Caminho 7094" d="M260,460.39a7.229,7.229,0,0,0,2.48-.05,14.906,14.906,0,0,0,2.93-.74,12.3,12.3,0,0,0,3.61-2,5,5,0,0,0,1.48-2,9.071,9.071,0,0,0,.5-2.6,26.745,26.745,0,0,1,.21-2.91,8,8,0,0,1,1.1-2.89c1.06-1.87,2.82-3.63,3.39-6.16a21.277,21.277,0,0,0-.24-7.89c-.42-2.7-.83-5.65.21-8.46s2.94-5.36,3.92-8.53.53-6.65.74-10.05a13.2,13.2,0,0,1,1.17-5c.73-1.59,1.74-3.1,2.53-4.77,1.59-3.39,1.87-7.24,2.31-11,.22-1.9.43-3.82.65-5.76a27.38,27.38,0,0,1,1-5.75,50.678,50.678,0,0,1,2.15-5.57,19.3,19.3,0,0,0,1.05-2.91c.17-1.06.22-2.06.29-3.1a37.19,37.19,0,0,0-.24-6.23c-.25-2.08-.62-4.13-.85-6.22v-.77l-.37.18a14,14,0,0,0-4.85,4.09,21.83,21.83,0,0,0-3,5.49c-1.51,3.87-2.05,7.92-2.81,11.79s-1.71,7.67-3.7,10.88c-1,1.61-2.18,3.07-3.22,4.63a12.73,12.73,0,0,0-2.23,5.13c-.54,3.81,1.56,7.16,1.13,10.53a11.78,11.78,0,0,1-1.65,4.67c-.81,1.44-1.77,2.77-2.69,4.11a26.642,26.642,0,0,0-2.41,4.15,13.21,13.21,0,0,0-1.11,4.52c-.22,3,.21,5.91,0,8.63a19.91,19.91,0,0,1-2.22,7.4c-1.09,2.21-2.3,4.21-3.31,6.16a28.5,28.5,0,0,0-1.37,2.86,14.323,14.323,0,0,0-.79,2.85,18.191,18.191,0,0,0-.07,5.14,13.07,13.07,0,0,0,2.58,6.55,6.426,6.426,0,0,0,.73.79,3.41,3.41,0,0,0,.59.5c.33.25.51.36.51.36a11.79,11.79,0,0,1-1.74-1.72,13,13,0,0,1-2.44-6.51,18.09,18.09,0,0,1,.11-5.06,13.4,13.4,0,0,1,.8-2.78c.38-.93.86-1.87,1.37-2.83,1-1.93,2.25-3.92,3.36-6.15a20.291,20.291,0,0,0,2.3-7.53c.23-2.77-.18-5.66.05-8.63a12.7,12.7,0,0,1,1.08-4.36,25.609,25.609,0,0,1,2.39-4.07c.91-1.33,1.88-2.67,2.72-4.14a12.19,12.19,0,0,0,1.72-4.86c.43-3.59-1.65-7-1.11-10.5a12.14,12.14,0,0,1,2.16-4.9c1-1.54,2.23-3,3.24-4.65a32.4,32.4,0,0,0,3.79-11.06c.76-3.9,1.31-7.91,2.78-11.69a21.831,21.831,0,0,1,2.9-5.35,13.621,13.621,0,0,1,4.64-3.92l-.41-.23v.37c.23,2.1.6,4.17.84,6.22a35.092,35.092,0,0,1,.24,6.14,29.041,29.041,0,0,1-.28,3,17.4,17.4,0,0,1-1,2.8,52.856,52.856,0,0,0-2.17,5.64,29,29,0,0,0-1,5.85c-.21,1.94-.43,3.86-.64,5.75-.43,3.79-.71,7.57-2.25,10.84-.76,1.63-1.77,3.14-2.52,4.78a14,14,0,0,0-1.2,5.19c-.2,3.47.25,6.86-.69,9.94s-2.89,5.62-3.88,8.52-.63,6-.2,8.67.87,5.35.29,7.74-2.23,4.17-3.31,6.08a8.559,8.559,0,0,0-1.12,3,25.7,25.7,0,0,0-.19,2.95,9.061,9.061,0,0,1-.38,2.62,4.76,4.76,0,0,1-1.4,1.89,12.3,12.3,0,0,1-3.52,2,14.9,14.9,0,0,1-2.89.78,10.7,10.7,0,0,1-1.83.18A4.648,4.648,0,0,0,260,460.39Z" fill="#263238"/>
      <path id="Caminho_7095" data-name="Caminho 7095" d="M288.46,354.35a.91.91,0,0,0-.08.27c-.06.22-.12.49-.2.81-.18.71-.39,1.78-.73,3.12s-1.17,2.84-1.87,4.7-1.46,4-2.14,6.39-1.29,5.06-1.93,7.92a33.23,33.23,0,0,1-2.88,8.79c-.74,1.46-1.57,2.94-2.23,4.56a21.331,21.331,0,0,0-1.29,5.16A107.147,107.147,0,0,1,273.17,407c-1.81,7.38-3.53,14.41-5.09,20.8s-3.05,12.12-4.27,17-2.15,8.69-2.83,11.44c-.31,1.32-.56,2.36-.74,3.12-.07.33-.13.6-.18.82a1.441,1.441,0,0,0,0,.28.86.86,0,0,0,.1-.27l.24-.8q.3-1.12.84-3.09c.72-2.74,1.75-6.62,3-11.4s2.73-10.57,4.38-16.94,3.32-13.42,5.14-20.8a106.579,106.579,0,0,0,1.94-10.93,20.661,20.661,0,0,1,1.24-5c.64-1.58,1.46-3.05,2.2-4.53a33.689,33.689,0,0,0,2.87-8.93c.62-2.86,1.2-5.52,1.86-7.91s1.35-4.54,2-6.38,1.46-3.38,1.79-4.76.48-2.43.62-3.15c.06-.34.11-.61.14-.82A1.06,1.06,0,0,0,288.46,354.35Z" fill="#263238"/>
      <path id="Caminho_7096" data-name="Caminho 7096" d="M261.61,460.42c5.88-3.5,7.57-14.1,5.12-20.49s-6.75-12.22-7.41-19c-.51-5.24,1.2-10.61,0-15.72-1.65-6.9-8.39-12.25-8.31-19.35,0-4,2.31-7.72,2.13-11.7-.22-4.88-4-8.75-6.29-13.05-3.55-6.57-3.78-14.35-5-21.73s-4-15.27-10.57-18.89c-1,6.26-2.61,10.55-2.09,19,.19,3,3.72,8.88,4.21,15.55.28,4,.48,8,.73,12s.49,7.85,1.88,11.48c1.07,2.79,2.78,5.32,3.57,8.2,1.49,5.41-.46,11.27.74,16.75,1,4.65,4.23,8.64,4.89,13.35.92,6.62-3.36,13.5-1.17,19.81,1.09,3.13,3.67,5.65,4.4,8.88.57,2.51-.05,5.17.46,7.69.83,4.06,8.58,7.22,12.71,7" fill="#ffa45e"/>
      <path id="Caminho_7097" data-name="Caminho 7097" d="M232.91,326.68a1.16,1.16,0,0,0,0,.35,9.852,9.852,0,0,0,.13,1c.14.91.29,2.24.6,3.95s1.21,3.67,1.92,6,1.5,5,2.16,8.05,1.23,6.35,1.82,9.95a41.1,41.1,0,0,0,3,11.25c.82,1.88,1.75,3.76,2.44,5.76a25.9,25.9,0,0,1,1.24,6.35,127.235,127.235,0,0,0,1.72,13.7c1.81,9.28,3.52,18.11,5.08,26.16s3.13,15.23,4.38,21.3,2.28,10.93,3,14.36l.84,3.89c.1.42.17.76.23,1a1.559,1.559,0,0,0,.1.34,1.33,1.33,0,0,0,0-.35q-.06-.39-.18-1c-.17-.93-.42-2.25-.73-3.92-.68-3.43-1.64-8.34-2.82-14.39s-2.66-13.31-4.26-21.33-3.24-16.87-5-26.15a134.07,134.07,0,0,1-1.73-13.65,26,26,0,0,0-1.28-6.48c-.71-2.05-1.65-3.94-2.48-5.8a40.63,40.63,0,0,1-3-11.11c-.61-3.58-1.19-6.94-1.89-10s-1.47-5.73-2.25-8.06a59,59,0,0,1-2-6c-.34-1.72-.53-3-.7-3.92l-.19-1A.641.641,0,0,1,232.91,326.68Z" fill="#263238"/>
    </g>
    <g id="freepik--Distance--inject-123">
      <path id="Caminho_7098" data-name="Caminho 7098" d="M348.35,229.85c0,.15-43.68.26-97.55.26s-97.55-.11-97.55-.26,43.67-.26,97.55-.26S348.35,229.71,348.35,229.85Z" fill="#fff"/>
      <path id="Caminho_7099" data-name="Caminho 7099" d="M159.1,235.49a12,12,0,0,1-1.82-1.51c-1.09-1-2.57-2.37-4.21-3.94l-.2-.19.2-.19.42-.39c1.75-1.65,3.36-3.11,4.54-4.16a12.67,12.67,0,0,1,2-1.61,12.469,12.469,0,0,1-1.74,1.88c-1.11,1.11-2.68,2.62-4.44,4.27l-.42.39v-.38c1.63,1.58,3.07,3,4.1,4.06a10.759,10.759,0,0,1,1.57,1.77Z" fill="#fff"/>
      <path id="Caminho_7100" data-name="Caminho 7100" d="M342.69,223.86a10.551,10.551,0,0,1,1.83,1.51c1.09,1,2.57,2.37,4.21,3.94l.2.19-.2.19-.42.39c-1.75,1.65-3.36,3.11-4.54,4.16a12.667,12.667,0,0,1-2,1.61,12.109,12.109,0,0,1,1.73-1.88c1.12-1.11,2.69-2.62,4.44-4.27l.42-.39v.37c-1.63-1.58-3.08-3-4.1-4.06A12.2,12.2,0,0,1,342.69,223.86Z" fill="#fff"/>
      <path id="Caminho_7101" data-name="Caminho 7101" d="M248.74,217.24v1.1h-5.17v-.87l2.79-2.65c.68-.65.8-1.06.8-1.45,0-.65-.44-1-1.31-1a2,2,0,0,0-1.64.74l-.91-.71a3.23,3.23,0,0,1,2.66-1.16c1.53,0,2.51.77,2.51,2a2.81,2.81,0,0,1-1.16,2.21l-1.88,1.79Z" fill="#fff"/>
      <path id="Caminho_7102" data-name="Caminho 7102" d="M261.59,215.27v3.07h-1.26v-2.91c0-1-.44-1.41-1.2-1.41a1.409,1.409,0,0,0-1.39,1.6v2.72h-1.26v-2.91c0-1-.44-1.41-1.2-1.41a1.409,1.409,0,0,0-1.39,1.6v2.72h-1.25V213h1.19v.68a2.21,2.21,0,0,1,1.75-.74,2,2,0,0,1,1.81.89,2.49,2.49,0,0,1,2-.89,2.06,2.06,0,0,1,2.2,2.33Z" fill="#fff"/>
    </g>
    <g id="freepik--character-2--inject-123">
      <path id="Caminho_7103" data-name="Caminho 7103" d="M367.41,260.54c1.2-7.63,3.19-20.22,3.19-20.23l-13.44-2.41-1.85,22.64Z" fill="#b78876"/>
      <path id="Caminho_7104" data-name="Caminho 7104" d="M367.63,259.12l-12.71-1.44.18,5.46s-5,11.6-4.58,21c.49,1.78,4.23,4.17,4.38,4.31.42,1.76,2.93,2.9,4,3.11,1.21,1.83,2.65,2.62,3.4,1.05,1,1.44,3.05.18,2.72-1.34-1.31-3.28-2.49-6.3-2.27-6.4.55-.76.68-10.29,5-7.31.33,1.77.49,7.93,4,6.61-.38-4.86-.33-12.85-5.25-17.88C366.51,266.24,367,263.16,367.63,259.12Z" fill="#f5f5f5"/>
      <path id="Caminho_7105" data-name="Caminho 7105" d="M360,278.56c-2.72,4-1.61,11.05,2.39,13.85C358.8,287.75,358.32,284.13,360,278.56Z" fill="#e0e0e0"/>
      <path id="Caminho_7106" data-name="Caminho 7106" d="M356.89,278.69c-3,3.73-.79,9.63,2,12.79C356.76,286.78,354.79,284.17,356.89,278.69Z" fill="#e0e0e0"/>
      <path id="Caminho_7107" data-name="Caminho 7107" d="M353.28,279.14c-.82,1.6-1.75,7.37,1.64,9.26C352.31,285.13,353.23,282.61,353.28,279.14Z" fill="#e0e0e0"/>
      <path id="Caminho_7108" data-name="Caminho 7108" d="M427.32,234.27c13.91,1.56,18.19,38.87,16.42,55-.51,4.59-1.55,9.12-1.86,13.72s.18,9.43,2.53,13.41c.84,1.43,1.95,2.88,1.82,4.54-.15,1.92-1.94,3.28-3.69,4.08-6.71,3-14.46,1.38-21.77.51a95.439,95.439,0,0,0-38.68,3.37c-3.61-12.74-3.71-26.16-4.4-39.38s-2.1-26.76-8-38.6" fill="#455a64"/>
      <path id="Caminho_7109" data-name="Caminho 7109" d="M444.75,321.45a4.64,4.64,0,0,1-.58-.34,7.464,7.464,0,0,1-.67-.48,8.169,8.169,0,0,1-.85-.72,15.57,15.57,0,0,1-3.88-6,25.161,25.161,0,0,1-1.45-10.43c.16-4,1-8.29,1.53-12.82a85.868,85.868,0,0,0-.54-23.28c-.48-2.95-1-5.32-1.4-6.94-.19-.78-.34-1.4-.46-1.88a3.161,3.161,0,0,1-.13-.66,2.829,2.829,0,0,1,.23.63c.13.43.34,1,.56,1.86.45,1.61,1,4,1.56,6.93a81,81,0,0,1,.69,23.4c-.53,4.56-1.38,8.84-1.56,12.78a25.32,25.32,0,0,0,1.31,10.29,16.1,16.1,0,0,0,3.68,5.93C444,320.93,444.79,321.4,444.75,321.45Z" fill="#263238"/>
      <path id="Caminho_7110" data-name="Caminho 7110" d="M403.69,353.31c-.18,0-2.86-16.9-6-37.81s-5.54-37.89-5.36-37.92,2.86,16.91,6,37.82S403.86,353.29,403.69,353.31Z" fill="#455a64"/>
      <path id="Caminho_7111" data-name="Caminho 7111" d="M463.3,408.66l.47.63,9.08,12.21,11.35,8-15.79,29.32-16.9-.23s1.28-4,9.44-6l.77-16.21-14.36-16.24" fill="#ffa45e"/>
      <g id="Grupo_6231" data-name="Grupo 6231" opacity="0.6">
        <path id="Caminho_7112" data-name="Caminho 7112" d="M484.2,429.53l-15.79,29.32-16.9-.23,1.94-2.51,13.75-.57,14.58-27.72Z" fill="#fff"/>
      </g>
      <path id="Caminho_7113" data-name="Caminho 7113" d="M461.16,445.16c.13.18,1.11-.36,2.42-.31s2.25.62,2.39.45-.78-1.15-2.37-1.19S461,445,461.16,445.16Z" fill="#263238"/>
      <path id="Caminho_7114" data-name="Caminho 7114" d="M461.49,441.15c.17.12.94-.87,2.29-1.11s2.42.38,2.53.21-.13-.36-.6-.63a3.19,3.19,0,0,0-3.88.72C461.49,440.76,461.41,441.1,461.49,441.15Z" fill="#263238"/>
      <path id="Caminho_7115" data-name="Caminho 7115" d="M461.46,436c.18.09.77-.88,2-1.27s2.24,0,2.33-.18-.17-.32-.63-.5a2.95,2.95,0,0,0-3.46,1.16C461.39,435.62,461.37,435.94,461.46,436Z" fill="#263238"/>
      <path id="Caminho_7116" data-name="Caminho 7116" d="M457,431.91c.2.07.69-.88,1.75-1.55s2.11-.75,2.12-1-1.24-.5-2.53.34S456.79,431.88,457,431.91Z" fill="#263238"/>
      <path id="Caminho_7117" data-name="Caminho 7117" d="M454.83,428.41c.09.06.65-.62,1.5-1.75l1.46-2a5.121,5.121,0,0,0,.8-1.35,1.33,1.33,0,0,0-.08-1,1.09,1.09,0,0,0-1-.55,3.149,3.149,0,0,0-1.59.8,5.632,5.632,0,0,0-1,1.16,5.529,5.529,0,0,0-.92,2.42,3.1,3.1,0,0,0,.35,2.31,19.113,19.113,0,0,1,.17-2.22,5.81,5.81,0,0,1,1-2.12,5.459,5.459,0,0,1,.94-1,2.76,2.76,0,0,1,1.18-.62.34.34,0,0,1,.32.16.71.71,0,0,1,0,.48,5.491,5.491,0,0,1-.67,1.17l-1.32,2.1A7.361,7.361,0,0,0,454.83,428.41Z" fill="#263238"/>
      <path id="Caminho_7118" data-name="Caminho 7118" d="M454.22,428.9c.08,0,0-.89-.87-1.92a4.23,4.23,0,0,0-5-1,.77.77,0,0,0-.27.6.91.91,0,0,0,.19.53,2.6,2.6,0,0,0,.6.54,7,7,0,0,0,1.19.7,7.46,7.46,0,0,0,2.21.66,3.4,3.4,0,0,0,2.09-.17c0-.12-.8-.07-2-.35a8.231,8.231,0,0,1-2-.75,8.006,8.006,0,0,1-1.05-.67,2.23,2.23,0,0,1-.44-.39c-.08-.15-.06-.1,0-.15a1.35,1.35,0,0,1,.5-.17,3.31,3.31,0,0,1,.62-.09,3.929,3.929,0,0,1,1.2.1,4.31,4.31,0,0,1,1.82,1C453.87,428.17,454.11,429,454.22,428.9Z" fill="#263238"/>
      <g id="Grupo_6232" data-name="Grupo 6232" opacity="0.6">
        <path id="Caminho_7119" data-name="Caminho 7119" d="M470.72,428.82a2,2,0,1,0,2-2A2,2,0,0,0,470.72,428.82Z" fill="#fff"/>
      </g>
      <path id="Caminho_7120" data-name="Caminho 7120" d="M397.87,427.17l-.08,32-39.85.5c.19-3.81,22.37-11.6,22.37-11.6l-.48-21.49Z" fill="#ffa45e"/>
      <g id="Grupo_6233" data-name="Grupo 6233" opacity="0.6">
        <path id="Caminho_7121" data-name="Caminho 7121" d="M391,446.07a1.62,1.62,0,0,1,1.15,1.84,1.57,1.57,0,0,1-1.82,1.16,1.72,1.72,0,0,1-1.2-2,1.61,1.61,0,0,1,2-1" fill="#fff"/>
      </g>
      <g id="Grupo_6234" data-name="Grupo 6234" opacity="0.6">
        <path id="Caminho_7122" data-name="Caminho 7122" d="M397.79,459.16l-.15-3.22-38.15,1.68s-1.77.8-1.55,2Z" fill="#fff"/>
      </g>
      <path id="Caminho_7123" data-name="Caminho 7123" d="M379.71,448.43c0,.2,1,.27,2,.89s1.48,1.42,1.66,1.34-.12-1.2-1.31-1.92S379.67,448.25,379.71,448.43Z" fill="#263238"/>
      <path id="Caminho_7124" data-name="Caminho 7124" d="M374.51,450.31c0,.19.81.51,1.48,1.32s.87,1.69,1.06,1.68.31-1.12-.55-2.12S374.51,450.12,374.51,450.31Z" fill="#263238"/>
      <path id="Caminho_7125" data-name="Caminho 7125" d="M372.28,455.15c.18,0,.44-.94-.08-2s-1.42-1.47-1.5-1.3.49.72.89,1.6S372.09,455.13,372.28,455.15Z" fill="#263238"/>
      <path id="Caminho_7126" data-name="Caminho 7126" d="M380,443.09c.08.18,1-.1,2.07,0s2,.39,2.06.23-.73-.86-2-.91S379.86,442.94,380,443.09Z" fill="#263238"/>
      <path id="Caminho_7127" data-name="Caminho 7127" d="M379.19,438.31a3.8,3.8,0,0,0,2,0,9,9,0,0,0,2.08-.67,9.894,9.894,0,0,0,1.14-.62,2.22,2.22,0,0,0,.59-.48.85.85,0,0,0,.08-1,1.07,1.07,0,0,0-.86-.43,2.619,2.619,0,0,0-.74.11,8.189,8.189,0,0,0-1.24.44,7.21,7.21,0,0,0-1.83,1.24c-.91.86-1.22,1.59-1.15,1.63s.53-.55,1.46-1.27a7.711,7.711,0,0,1,1.77-1,6.906,6.906,0,0,1,1.14-.37c.42-.12.78-.13.89.06s.05.1,0,.22a1.87,1.87,0,0,1-.44.35,10.534,10.534,0,0,1-1,.62,11.323,11.323,0,0,1-1.92.76A17.151,17.151,0,0,0,379.19,438.31Z" fill="#263238"/>
      <path id="Caminho_7128" data-name="Caminho 7128" d="M379.45,438.59a3.13,3.13,0,0,0,.5-1.94,6.4,6.4,0,0,0-.3-2.18,5.66,5.66,0,0,0-.52-1.2,1.64,1.64,0,0,0-1.28-1,.93.93,0,0,0-.83.56,2.942,2.942,0,0,0-.2.74,4.61,4.61,0,0,0,0,1.34,4.55,4.55,0,0,0,.87,2.05c.8,1,1.61,1.25,1.63,1.18a8.529,8.529,0,0,1-1.23-1.45,4.49,4.49,0,0,1-.65-1.87,3.709,3.709,0,0,1,0-1.15c.06-.43.21-.77.37-.73a1.443,1.443,0,0,1,.71.65,7.342,7.342,0,0,1,.5,1.07,7,7,0,0,1,.41,2C379.54,437.83,379.34,438.56,379.45,438.59Z" fill="#263238"/>
      <path id="Caminho_7129" data-name="Caminho 7129" d="M435.3,352.85l-4.43-90.3s-.43-13.62-3.64-17.78c-1.12-1.46-58.7,2.58-58.7,2.58l-2.39-2.85s-2.95,9.26-3,17.28l6.39,104.09L380.9,432.3l16-.18s4.09-37.28,4-45.85-3.7-26-3.7-26l1.28-40,6.7,41.73A28.11,28.11,0,0,0,411,374.87l37.17,46.18,15.14-12.39Z" fill="#263238"/>
      <path id="Caminho_7130" data-name="Caminho 7130" d="M392.15,279.47c.15,0,2.88,16.93,6.11,37.86s5.74,37.92,5.6,37.95-2.88-16.93-6.11-37.87S392,279.49,392.15,279.47Z" fill="#455a64"/>
      <path id="Caminho_7131" data-name="Caminho 7131" d="M368.11,158.85a21.2,21.2,0,0,0-5.67,11.65c-.26,1.89-7.42,72.25-7.42,72.25l10.25,1.75s7-25.32,6-33.74S368.11,158.85,368.11,158.85Z" fill="#ffa45e"/>
      <path id="Caminho_7132" data-name="Caminho 7132" d="M388.42,145.57s-22.91,14.56-20.31,13.28c0,0-4.56,27.06-2.8,33.82s4,22.65,4,22.65l-4.71,34,66.27,2.83c-1.78-14.92-5.71-26.11-11.15-37.76l9.14-60.36L412,147.27l-6.88-4.44Z" fill="#ffa45e"/>
      <path id="Caminho_7133" data-name="Caminho 7133" d="M426.05,153.12a13,13,0,0,1,8.59,6.68c1.67,3.35,8.81,18.13,8.81,18.13l-.84-16.72,16-.44s2.35,20,2.34,30.16c0,9-1.49,19-14.65,17.09-7.5-1.11-24.35-24.26-24.35-24.26l1.72-12.64Z" fill="#ffa45e"/>
      <path id="Caminho_7134" data-name="Caminho 7134" d="M365.64,257.68a4.468,4.468,0,0,1-.18-.79q-.16-.86-.42-2.28a40.5,40.5,0,0,1,0-8.52,92.871,92.871,0,0,1,2.26-12.44c1.08-4.62,2.42-9.68,3.17-15.09a41.61,41.61,0,0,0-.47-15.27c-1-4.63-2.24-8.74-2.83-12.31a28.579,28.579,0,0,1-.42-8.5c.07-.49.14-.94.19-1.33s.17-.68.23-1a5.781,5.781,0,0,1,.22-.78,4.33,4.33,0,0,1-.11.8l-.18,1c0,.39-.09.83-.14,1.32a29.811,29.811,0,0,0,.57,8.42c.63,3.52,1.91,7.61,2.94,12.27a41.411,41.411,0,0,1,.52,15.44c-.76,5.46-2.12,10.52-3.22,15.13a97.6,97.6,0,0,0-2.37,12.36,44.545,44.545,0,0,0-.12,8.47c.14.95.24,1.71.32,2.28a4.471,4.471,0,0,1,.04.82Z" fill="#263238"/>
      <path id="Caminho_7135" data-name="Caminho 7135" d="M425.93,176.06a8.132,8.132,0,0,1-.18,1.52l-.62,4.11c-.54,3.57-1.25,8.33-2.05,13.58s-1.58,10.11-2.19,13.57c-.31,1.73-.58,3.13-.79,4.09a7.83,7.83,0,0,1-.38,1.48,9.4,9.4,0,0,1,.18-1.52l.62-4.11c.54-3.57,1.26-8.33,2.05-13.59s1.58-10.1,2.2-13.56c.31-1.73.58-3.13.78-4.09A8.94,8.94,0,0,1,425.93,176.06Z" fill="#263238"/>
      <path id="Caminho_7136" data-name="Caminho 7136" d="M402.65,214.51a3.921,3.921,0,0,1-.73.65c-.48.4-1.21.94-2.13,1.58a58.238,58.238,0,0,1-7.57,4.43,59.144,59.144,0,0,1-8.15,3.24c-1.08.33-1.95.57-2.57.71a3.11,3.11,0,0,1-1,.16c0-.07,1.31-.48,3.41-1.22a77.9,77.9,0,0,0,8-3.36,77.054,77.054,0,0,0,7.59-4.26,36.007,36.007,0,0,1,3.15-1.93Z" fill="#263238"/>
      <path id="Caminho_7137" data-name="Caminho 7137" d="M427.63,165.87a40.361,40.361,0,0,1,.8-4.67,37,37,0,0,1,.87-4.65,15.24,15.24,0,0,1-.36,4.74,15.44,15.44,0,0,1-1.31,4.58Z" fill="#263238"/>
      <path id="Caminho_7138" data-name="Caminho 7138" d="M442.43,161.47a8.381,8.381,0,0,1,.32,1.56c.16,1,.37,2.49.55,4.32a91.367,91.367,0,0,1,.25,14.34c-.26,5.6-1.56,10.63-.72,14.21a10.32,10.32,0,0,0,1.62,3.93,12.694,12.694,0,0,0,1,1.22c0,.03-.12-.07-.34-.24a7.1,7.1,0,0,1-.82-.86,9.81,9.81,0,0,1-1.82-4,19.9,19.9,0,0,1-.17-6.48c.26-2.42.58-5.05.73-7.84a106.353,106.353,0,0,0-.1-14.28c-.12-1.83-.29-3.3-.38-4.32a10.352,10.352,0,0,1-.12-1.56Z" fill="#263238"/>
      <path id="Caminho_7139" data-name="Caminho 7139" d="M414.85,100.51c.07-2.17-1.94-3.84-4-4.64s-4.26-1.09-6.06-2.3c-1.59-1.07-2.66-2.74-4-4.11a13.34,13.34,0,0,0-22.43,6.12c-.78,3.09-.25,6.73,2.18,8.78,2.83,2.38,7,1.86,10.63,1.11s7.71-1.47,10.73.66c1.82,1.28,2.86,3.36,4,5.29s2.51,3.9,4.62,4.62,5-.52,5-2.75" fill="#263238"/>
      <path id="Caminho_7140" data-name="Caminho 7140" d="M414.71,101.69c-.24,1.82,1.07,3.45,2.38,4.73s2.79,2.64,3,4.46c.27,2.12-1.28,4.21-.83,6.3.28,1.33,1.32,2.35,1.94,3.55a7.56,7.56,0,0,1,.39,5.57c-.54,1.83-1.4,5.91-2.67,7.33a29.37,29.37,0,0,1-14.25,8.51A55.34,55.34,0,0,1,389,143c-4.31-.27-9.26-.07-12.85-6-1.86-3.07-2.78-7.16-3.77-10.61-.85-3-1.59-6.15-.7-9.11.51-1.72,1.55-3.26,2.06-5,.63-2.16.4-4.47.66-6.7a15.37,15.37,0,0,1,21.87-12.14" fill="#263238"/>
      <path id="Caminho_7141" data-name="Caminho 7141" d="M376.41,109.14c.4-6.18,4.52-13.76,10.68-13.09l19.22,4.9a3.63,3.63,0,0,1,3.24,3.68l-1.25,42.25a11.15,11.15,0,0,1-11.39,10.81h0A11.14,11.14,0,0,1,386,146.56c0-3,0-5.4,0-5.38s-7.9-1.33-9.51-11.64C375.69,124.41,376,116,376.41,109.14Z" fill="#b78876"/>
      <path id="Caminho_7142" data-name="Caminho 7142" d="M378.07,116.34a1.32,1.32,0,0,0,1.27,1.33,1.25,1.25,0,0,0,1.36-1.19,1.32,1.32,0,0,0-1.27-1.33,1.26,1.26,0,0,0-1.36,1.19Z" fill="#263238"/>
      <path id="Caminho_7143" data-name="Caminho 7143" d="M378.22,113.52c.17.17,1.17-.57,2.59-.56s2.46.72,2.62.54-.09-.39-.54-.72a3.66,3.66,0,0,0-2.1-.65,3.47,3.47,0,0,0-2.06.66C378.29,113.13,378.14,113.44,378.22,113.52Z" fill="#263238"/>
      <path id="Caminho_7144" data-name="Caminho 7144" d="M392.17,116.34a1.32,1.32,0,0,0,1.27,1.33,1.25,1.25,0,0,0,1.36-1.19,1.32,1.32,0,0,0-1.27-1.33,1.26,1.26,0,0,0-1.36,1.19Z" fill="#263238"/>
      <path id="Caminho_7145" data-name="Caminho 7145" d="M392.2,113.81c.17.17,1.17-.56,2.59-.56s2.47.72,2.62.55-.09-.39-.54-.72a3.66,3.66,0,0,0-2.1-.65,3.47,3.47,0,0,0-2.06.66C392.27,113.42,392.12,113.73,392.2,113.81Z" fill="#263238"/>
      <path id="Caminho_7146" data-name="Caminho 7146" d="M387,124.35a9.3,9.3,0,0,0-2.31-.42c-.36,0-.71-.12-.77-.36a1.87,1.87,0,0,1,.25-1.08q.51-1.32,1.08-2.76c1.5-3.94,2.58-7.17,2.42-7.23a48.822,48.822,0,0,0-3,7c-.36,1-.71,1.89-1,2.78a2.11,2.11,0,0,0-.2,1.42.92.92,0,0,0,.6.53,2.5,2.5,0,0,0,.62.09,9.411,9.411,0,0,0,2.31.03Z" fill="#263238"/>
      <path id="Caminho_7147" data-name="Caminho 7147" d="M386,141.18a26.25,26.25,0,0,0,13.81-3.65s-3.5,7.06-13.81,6.07Z" fill="#aa6550"/>
      <path id="Caminho_7148" data-name="Caminho 7148" d="M387.61,127.78a2.55,2.55,0,0,1,2.3-1,2.38,2.38,0,0,1,1.62.87,1.48,1.48,0,0,1,.1,1.7,1.69,1.69,0,0,1-1.86.46,5.32,5.32,0,0,1-1.82-1.09,1.45,1.45,0,0,1-.4-.42.47.47,0,0,1,0-.53" fill="#ffa45e"/>
      <path id="Caminho_7149" data-name="Caminho 7149" d="M391.2,125.34c-.23,0-.24,1.53-1.56,2.62s-3,.92-3,1.14.37.3,1.06.32a3.82,3.82,0,0,0,2.49-.86,3.37,3.37,0,0,0,1.21-2.2C391.48,125.72,391.31,125.33,391.2,125.34Z" fill="#263238"/>
      <path id="Caminho_7150" data-name="Caminho 7150" d="M391.86,109.65c.14.38,1.56.2,3.23.41s3,.66,3.24.31c.1-.16-.14-.53-.68-.9a5.44,5.44,0,0,0-2.4-.85,5.53,5.53,0,0,0-2.53.29C392.11,109.16,391.8,109.46,391.86,109.65Z" fill="#263238"/>
      <path id="Caminho_7151" data-name="Caminho 7151" d="M378.76,109.4c.24.32,1.22,0,2.4,0s2.18.22,2.41-.12c.1-.16-.06-.49-.49-.79a3.46,3.46,0,0,0-3.88.11C378.78,108.91,378.64,109.24,378.76,109.4Z" fill="#263238"/>
      <path id="Caminho_7152" data-name="Caminho 7152" d="M413.51,134.86a9.16,9.16,0,0,1-10.89-10.12c.32-2.53,1.69-5.11.81-7.5-1.16-3.17-5.6-4.15-6.78-7.31-.68-1.83-.07-4-.85-5.78s-2.51-2.67-4.24-3.3-3.59-1.06-5.05-2.19-2.36-3.27-1.42-4.85a97.72,97.72,0,0,1,22.52,5.47c1.68.63,3.45,1.38,4.44,2.88s1,3.62.91,5.52l-1.29,27.76" fill="#263238"/>
      <path id="Caminho_7153" data-name="Caminho 7153" d="M412.86,138.4s.06,0,.17-.1l.46-.35c.4-.32,1-.78,1.7-1.42a17.849,17.849,0,0,0,2.43-2.55,9.45,9.45,0,0,0,1.92-4.24,6.44,6.44,0,0,0-1.32-5.42,20.694,20.694,0,0,0-2.41-2,5.68,5.68,0,0,1-1.87-2.56c-.76-2.1-.42-4.53-.72-7a14,14,0,0,0-2.92-7.1,9.78,9.78,0,0,0-3.05-2.5,18.919,18.919,0,0,0-3.61-1.21,8.56,8.56,0,0,1-3.17-1.56,12.519,12.519,0,0,1-2.29-2.54c-1.3-1.83-2.25-3.79-3.49-5.43a11.571,11.571,0,0,0-2-2.15,7.591,7.591,0,0,0-2.41-1.31,5.13,5.13,0,0,0-4.57.45,4.18,4.18,0,0,0-1.63,3.09,3.08,3.08,0,0,0,.62,2.12,1.841,1.841,0,0,0,.42.4l.16.11-.13-.14a2.549,2.549,0,0,1-.38-.43,3,3,0,0,1-.51-2,4,4,0,0,1,1.59-2.89,4.88,4.88,0,0,1,4.33-.36,7.35,7.35,0,0,1,2.29,1.28,11.309,11.309,0,0,1,1.95,2.11c1.2,1.6,2.13,3.56,3.45,5.45a12.37,12.37,0,0,0,2.36,2.62,8.81,8.81,0,0,0,3.31,1.65,18.59,18.59,0,0,1,3.53,1.2,9.11,9.11,0,0,1,2.91,2.38,13.54,13.54,0,0,1,2.83,6.87c.3,2.4,0,4.87.77,7.11a6,6,0,0,0,2,2.72,21.994,21.994,0,0,1,2.38,2,6.13,6.13,0,0,1,1.29,5.12,9.26,9.26,0,0,1-1.82,4.14,19.249,19.249,0,0,1-2.33,2.57c-.71.66-1.27,1.14-1.65,1.48a5.7,5.7,0,0,0-.59.39Z" fill="#455a64"/>
      <path id="Caminho_7154" data-name="Caminho 7154" d="M374.66,104.73v.12a.852.852,0,0,1-.05.34c0,.32-.09.76-.16,1.32-.14,1.15-.28,2.82-.68,4.84a11.93,11.93,0,0,1-1,3.18,13.259,13.259,0,0,0-1.47,3.6,11.61,11.61,0,0,0,.16,4.3c.29,1.46.59,3,1,4.51s.85,3,1.27,4.42c.21.72.4,1.42.62,2.11a19.014,19.014,0,0,0,.78,2,13,13,0,0,0,4.63,5.53,10.41,10.41,0,0,0,2.57,1.13,19.525,19.525,0,0,0,2.05.49c.57.1,1,.16,1.32.2l.34.05h0l-.34-.06-1.3-.26a18.77,18.77,0,0,1-2-.51,10.87,10.87,0,0,1-2.52-1.15,13,13,0,0,1-4.52-5.49,16,16,0,0,1-.76-1.94c-.22-.67-.4-1.38-.62-2.09-.41-1.43-.86-2.9-1.26-4.43s-.7-3-1-4.48a11.6,11.6,0,0,1-.18-4.21,13.62,13.62,0,0,1,1.44-3.56,12.171,12.171,0,0,0,1-3.23c.37-2,.49-3.72.61-4.87a11.537,11.537,0,0,1,.11-1.32v-.35Z" fill="#455a64"/>
      <path id="Caminho_7155" data-name="Caminho 7155" d="M375.7,134.91c1.83.88,2.29,3.42,1.58,5.32s-2.25,3.35-3.63,4.84-2.69,3.26-2.75,5.29c-.08,2.64,2,5,1.91,7.64-.12,3.64-4.06,5.88-5.55,9.2-1.8,4,.22,8.55,1.94,12.58s3,9.09.19,12.43a5.25,5.25,0,0,0,4.46-1.8l.52,4.33c8.34-5.12,12.78-15,13.69-24.78s-1.19-19.49-3.29-29.05a17.9,17.9,0,0,1-7.86-6.46" fill="#263238"/>
      <path id="Caminho_7156" data-name="Caminho 7156" d="M429.82,240.48l-1.53-2.58c-17.92,15.07-42.5,14.59-62.64,4.56-2.47,3.3-3.19,7.21-1.39,10.52,18.66,8.33,38.89,7.6,58.19.9,1.62-.56,6.45-1.39,9.39-4.42C431.84,249.46,431.93,247.07,429.82,240.48Z" fill="#455a64"/>
      <path id="Caminho_7157" data-name="Caminho 7157" d="M391.84,250.75c-2.72.66-4.64,1.13-5.58,3.78a3.19,3.19,0,0,0-.07,2.87,5.56,5.56,0,0,0,1.95,2.19,7.52,7.52,0,0,0,7.23.93,5.59,5.59,0,0,0,3.19-6.27C397.79,251.55,394.56,250.08,391.84,250.75Z" fill="#455a64"/>
      <path id="Caminho_7158" data-name="Caminho 7158" d="M394.38,260.56a29,29,0,0,0,2.84,12.17c1.1,2.28,2.52,4.51,2.7,7,.24,3.28-1.68,6.33-2.14,9.59-.64,4.6,1.72,9.18,5,12.5a8.279,8.279,0,0,0,2.64,1.95,8,8,0,0,0,4.4.17A23.42,23.42,0,0,0,420,299.39c-2.44-1.1-3.61-3.95-3.76-6.61s.47-5.31.53-8a19.14,19.14,0,0,0-3-10.66c-2.49-3.91-6.3-6.76-9.69-9.93s-6.55-7-7-11.67" fill="#455a64"/>
      <path id="Caminho_7159" data-name="Caminho 7159" d="M389.22,256c-3.3,1.82-4.81,5.85-5,9.62s.76,7.5,1.05,11.27-.17,7.85-2.64,10.7c-.76.87-1.75,2-1.22,3a2.53,2.53,0,0,0,1.53,1q2.88,1.005,5.77,2a4.5,4.5,0,0,0,2.62.31,4.14,4.14,0,0,0,2-1.77A23.83,23.83,0,0,0,397,274.49c-.54-2.88-1.63-5.65-2.09-8.55s-.23-6.11,1.6-8.41" fill="#455a64"/>
      <path id="Caminho_7160" data-name="Caminho 7160" d="M398.72,257.55a4.129,4.129,0,0,1,0-.94,7.841,7.841,0,0,0-.4-2.47,6.77,6.77,0,0,0-2.15-2.92,6.44,6.44,0,0,0-4.18-1.33,6.37,6.37,0,0,0-4,1.75,5.83,5.83,0,0,0-1.76,3.15,6.41,6.41,0,0,0-.11,2.49c.11.58.28.87.24.89a1.67,1.67,0,0,1-.44-.85,5.891,5.891,0,0,1-.05-2.6,6,6,0,0,1,1.79-3.43,6.59,6.59,0,0,1,8.82-.45,6.87,6.87,0,0,1,2.21,3.19,6.68,6.68,0,0,1,.25,2.59,2.471,2.471,0,0,1-.22.93Z" fill="#263238"/>
      <path id="Caminho_7161" data-name="Caminho 7161" d="M400.11,259.75a4.86,4.86,0,0,1-.73-.94c-.23-.34-.5-.71-.79-1.14a16.545,16.545,0,0,0-1.06-1.46,3.57,3.57,0,0,0-1.82-1,3.13,3.13,0,0,0-2.29.39,1.72,1.72,0,0,0-.81.86,2.61,2.61,0,0,0,.1,1.28c.3.93.62,1.89.93,2.88,1.29,3.95,2.42,7.54,3.22,10.15.36,1.22.67,2.26.92,3.09a6.231,6.231,0,0,1,.27,1.16,4.7,4.7,0,0,1-.46-1.09c-.29-.83-.65-1.84-1.08-3.05-.89-2.58-2.08-6.15-3.36-10.1-.32-1-.64-1.94-.93-2.9a3,3,0,0,1-.09-1.56,2.15,2.15,0,0,1,1-1.13,3.54,3.54,0,0,1,2.63-.4,3.89,3.89,0,0,1,2,1.17,13.376,13.376,0,0,1,1,1.56c.27.43.51.83.72,1.18A5.248,5.248,0,0,1,400.11,259.75Z" fill="#263238"/>
      <path id="Caminho_7162" data-name="Caminho 7162" d="M395.53,250.52a4.63,4.63,0,0,1-.73,1.67,12.28,12.28,0,0,1-6.78,5.37,4.63,4.63,0,0,1-1.79.33c-.06-.17,2.72-.71,5.35-2.8a22,22,0,0,0,3.95-4.57Z" fill="#263238"/>
      <path id="Caminho_7163" data-name="Caminho 7163" d="M417.86,295.83a3.277,3.277,0,0,1-.63.27,10.6,10.6,0,0,1-1.84.41,14.88,14.88,0,0,1-11.59-3.44,9.851,9.851,0,0,1-1.31-1.33c-.28-.35-.42-.55-.39-.57s.71.67,1.93,1.62a16.83,16.83,0,0,0,5.35,2.73,16.42,16.42,0,0,0,6,.62C416.9,296,417.84,295.74,417.86,295.83Z" fill="#263238"/>
      <path id="Caminho_7164" data-name="Caminho 7164" d="M393.65,276.77a4.54,4.54,0,0,1,.38,2.15,8.43,8.43,0,0,1-5.91,8,4.34,4.34,0,0,1-2.15.28c0-.08.82-.15,2-.63a8.77,8.77,0,0,0,5.66-7.7C393.75,277.6,393.57,276.79,393.65,276.77Z" fill="#263238"/>
      <path id="Caminho_7165" data-name="Caminho 7165" d="M416,249.36a11.15,11.15,0,0,1-2.26,1.48,32.867,32.867,0,0,1-6,2.63,22.05,22.05,0,0,1-6.47,1.06,12.305,12.305,0,0,1-2-.13,2,2,0,0,1-.71-.15c0-.09,1,0,2.68-.09a25.87,25.87,0,0,0,6.32-1.19C412.37,251.42,415.88,249.18,416,249.36Z" fill="#263238"/>
      <path id="Caminho_7166" data-name="Caminho 7166" d="M413.59,255a7.861,7.861,0,0,1-2.16.55,29.838,29.838,0,0,1-5.37.45,22.871,22.871,0,0,1-5.35-.65,7.272,7.272,0,0,1-2.11-.75,47,47,0,0,0,7.47.88C410.22,255.5,413.57,254.83,413.59,255Z" fill="#263238"/>
      <path id="Caminho_7167" data-name="Caminho 7167" d="M436.68,246.69a39,39,0,0,1-11.43,6.82c-.07-.14,2.59-1.48,5.74-3.36S436.59,246.57,436.68,246.69Z" fill="#263238"/>
      <path id="Caminho_7168" data-name="Caminho 7168" d="M368.67,246.36a20.439,20.439,0,0,1,2.47,1.32,48.86,48.86,0,0,0,6.1,2.79,47.563,47.563,0,0,0,6.43,1.88,22,22,0,0,1,2.73.62,11.711,11.711,0,0,1-2.79-.25,36.44,36.44,0,0,1-6.56-1.76,35.51,35.51,0,0,1-6.1-3,11.192,11.192,0,0,1-2.28-1.6Z" fill="#263238"/>
      <path id="Caminho_7169" data-name="Caminho 7169" d="M386.42,253.19a14,14,0,0,1-5,.83,13.49,13.49,0,0,1-5.05-.52c0-.15,2.26.1,5,0S386.39,253,386.42,253.19Z" fill="#263238"/>
      <path id="Caminho_7170" data-name="Caminho 7170" d="M442.55,146.38c.78,6.23,1.74,14.78,1.74,14.78l12.23-.43-2-14.35Z" fill="#b78876"/>
      <path id="Caminho_7171" data-name="Caminho 7171" d="M442,142.44c.22,1.6.51,3.83.79,6.19h12L454,142.7c1.62-1.89,8.89-14.94,9.85-16.71s.73-2.85,0-2.82c-1.28.06-5.45,6.9-6.1,6.68s4-8.9,4-10.92-2.09-.57-2.09-.57c1.23-2-.44-4-1.82-2.48-1.91,2.06-6.58,11.06-6.48,10.93s.75-2.87,1.24-4.91,2.55-6.49,1.24-6.74-3.11,3.13-4.22,5.41l-4.95,10.13a60.814,60.814,0,0,0-.37-6.84c-.49-2.9-2.43-2.83-2.43-2.83s-2.4,14.23-2.24,16.73C439.76,139.71,441.35,141.67,442,142.44Z" fill="#f5f5f5"/>
      <path id="Caminho_7172" data-name="Caminho 7172" d="M452.6,136.13a16.58,16.58,0,0,0-5.46,1.64l-.34.2-.05-.4v-.17a21.062,21.062,0,0,0-1.7-5.65,4.39,4.39,0,0,1,1,1.47,12.15,12.15,0,0,1,1.21,4.13v.17l-.39-.2a10.34,10.34,0,0,1,4-1.26,3.7,3.7,0,0,1,1.73.07Z" fill="#e0e0e0"/>
      <path id="Caminho_7173" data-name="Caminho 7173" d="M459.84,118a36.15,36.15,0,0,1-2.89,5.6c-1.73,3-3,5.53-3.11,5.48a24.172,24.172,0,0,1,2.66-5.73,40.7,40.7,0,0,1,3.34-5.35Z" fill="#e0e0e0"/>
      <path id="Caminho_7174" data-name="Caminho 7174" d="M450.64,143.56a5.4,5.4,0,0,1-3.07.46,5.34,5.34,0,0,1-3-.86c.05-.15,1.36.24,3,.34S450.61,143.41,450.64,143.56Z" fill="#e0e0e0"/>
      <path id="Caminho_7175" data-name="Caminho 7175" d="M375.21,122.7s1.7,1.84,5.44,1.29a68.59,68.59,0,0,1,13.79,1c3.91.74,9.38-1.11,9.38-1.11l3.84,8.86s-7.84,9.88-20.9,9.86c-6.11,0-10.77-4.25-12-7.65S375.21,122.7,375.21,122.7Z" fill="#ebebeb"/>
      <path id="Caminho_7176" data-name="Caminho 7176" d="M375.21,122.7a5.089,5.089,0,0,0-.2.89c-.12.59-.26,1.47-.41,2.6s-.31,2.52-.38,4.14a20.9,20.9,0,0,0,0,2.61,7.431,7.431,0,0,0,.71,2.86,12.52,12.52,0,0,0,4.56,4.88,13.76,13.76,0,0,0,7.36,2.14,28.84,28.84,0,0,0,21-9.93l.1-.11-.06-.15c-1.35-3.08-2.64-6-3.85-8.85l-.09-.2-.22.06a27.071,27.071,0,0,1-5.95,1.23,13.33,13.33,0,0,1-2.83,0c-.9-.13-1.82-.31-2.69-.41a79.88,79.88,0,0,0-9.22-.64H381.2c-.58,0-1.11.15-1.61.16a7.15,7.15,0,0,1-2.51-.29,5.38,5.38,0,0,1-1.43-.66c-.3-.2-.44-.33-.45-.32a1.53,1.53,0,0,0,.4.39,5.111,5.111,0,0,0,1.43.74,7.09,7.09,0,0,0,2.57.37c.51,0,1.06-.1,1.62-.12s1.18,0,1.82,0a84,84,0,0,1,9.16.75c.88.11,1.75.29,2.7.43a14.089,14.089,0,0,0,2.91.06,27,27,0,0,0,6.08-1.22l-.3-.13,3.82,8.86v-.26a28.6,28.6,0,0,1-20.58,9.77,13.17,13.17,0,0,1-11.59-6.71,7,7,0,0,1-.71-2.72,20.587,20.587,0,0,1-.07-2.57,37.031,37.031,0,0,1,.29-4.13c.12-1.13.23-2,.31-2.6A8.252,8.252,0,0,0,375.21,122.7Z" fill="#263238"/>
      <path id="Caminho_7177" data-name="Caminho 7177" d="M411.05,116.31h-.45a4.05,4.05,0,0,0-1,.55,15.63,15.63,0,0,0-2.72,2.64,19.25,19.25,0,0,0-3,4.36,47.469,47.469,0,0,0,3.43-4,26.446,26.446,0,0,1,2.54-2.68,7.248,7.248,0,0,1,.89-.65C410.91,116.42,411.05,116.35,411.05,116.31Z" fill="#ebebeb"/>
      <path id="Caminho_7178" data-name="Caminho 7178" d="M406.78,133c0,.07.51-.12,1.25-.5a12.1,12.1,0,0,0,2.69-1.83,6.83,6.83,0,0,0,1.85-2.71c.27-.81.22-1.35.16-1.35a10.546,10.546,0,0,0-.51,1.21,8,8,0,0,1-1.85,2.47,19.1,19.1,0,0,1-2.53,1.89A9.823,9.823,0,0,0,406.78,133Z" fill="#ebebeb"/>
      <path id="Caminho_7179" data-name="Caminho 7179" d="M377.08,135.8a3.62,3.62,0,0,0,.82.51,16.522,16.522,0,0,0,2.41,1,19.34,19.34,0,0,0,16.69-2.1,15.86,15.86,0,0,0,2.08-1.6c.46-.41.68-.67.66-.7s-1.06.87-2.94,2A20.36,20.36,0,0,1,380.42,137C378.33,136.37,377.12,135.71,377.08,135.8Z" fill="#263238"/>
      <path id="Caminho_7180" data-name="Caminho 7180" d="M377.26,128.58a20.512,20.512,0,0,0,3,0c1.84-.06,4.39-.1,7.21,0s5.35.3,7.19.47a19.811,19.811,0,0,0,3,.23,15.161,15.161,0,0,0-2.95-.59,65.13,65.13,0,0,0-7.22-.63,63.387,63.387,0,0,0-7.24.17,14.141,14.141,0,0,0-2.99.35Z" fill="#263238"/>
      <path id="Caminho_7181" data-name="Caminho 7181" d="M398.78,131c-4.87,2.73-10.74,2.79-16.31,2.68a12.2,12.2,0,0,1-3.13-.32,4.33,4.33,0,0,1-2.54-1.72,124.33,124.33,0,0,0,22.33-.46" fill="#e0e0e0"/>
    </g>
    <g id="freepik--character-1--inject-123">
      <path id="Caminho_7182" data-name="Caminho 7182" d="M52.34,325.41q4.94-15.14,9.88-30.26c1.48-4.53,3.09-9.28,6.63-12.48,2.06-1.86,5.21-3.07,7.61-1.66a5.87,5.87,0,0,1,2.59,4.79,16.66,16.66,0,0,1-.93,5.57c-4,13.79-8.82,27.32-13.85,40.76l.51-.93" fill="#ffa45e"/>
      <path id="Caminho_7183" data-name="Caminho 7183" d="M65.56,318.51a9.171,9.171,0,0,1-3.33-1,8.9,8.9,0,0,1-3-1.73,17,17,0,0,1,3.21,1.25,16.289,16.289,0,0,1,3.12,1.48Z" fill="#263238"/>
      <path id="Caminho_7184" data-name="Caminho 7184" d="M68.83,311.19a18.2,18.2,0,0,1-3.7-1.31,18.3,18.3,0,0,1-3.58-1.6,12.57,12.57,0,0,1,3.78,1.11,12.779,12.779,0,0,1,3.5,1.8Z" fill="#263238"/>
      <path id="Caminho_7185" data-name="Caminho 7185" d="M71.91,305.15c-.09.12-1.67-.89-3.77-1.79s-3.93-1.37-3.89-1.53a9.89,9.89,0,0,1,4.09,1.05,9.72,9.72,0,0,1,3.57,2.27Z" fill="#263238"/>
      <path id="Caminho_7186" data-name="Caminho 7186" d="M73.84,297.53c-.1.12-1.46-1-3.37-2s-3.59-1.44-3.56-1.59a8.08,8.08,0,0,1,3.8,1.13A8.09,8.09,0,0,1,73.84,297.53Z" fill="#263238"/>
      <rect id="Ret창ngulo_52" data-name="Ret창ngulo 52" width="2.95" height="5.85" transform="translate(49.18 299.53)" fill="#263238"/>
      <path id="Caminho_7187" data-name="Caminho 7187" d="M48.84,316.8V304.6h3.6v10.17s3.79.11,4.26,1.78c1,3.66.58,11.91.58,11.91Z" fill="#455a64"/>
      <path id="Caminho_7188" data-name="Caminho 7188" d="M70.13,302.5c-.81-.19-2.52-.65-3.09-2.17l1.5-7.62s1.08,6,1.93,7a7,7,0,0,1,.9,1.27,1.1,1.1,0,0,1-1.24,1.52Z" fill="#f5f5f5"/>
      <path id="Caminho_7189" data-name="Caminho 7189" d="M80,349.22c-1-6.13-2.59-12.19-2.88-18.4-.2-4.26.2-8.55-.33-12.77-.64-5.1-2.6-9.91-4.55-14.66C71,300.31,69.59,297.08,67,295a9.54,9.54,0,0,0-5.5-1.92h0c-3.62-1.48-13.54-1.9-16.68,4.75-1.66,3.53-1.86,7.56-2.81,11.35-1.28,5.12-.36,6.8-2,11.8-3.56,10.67-9,23.92-7.38,35.06.31,2.17,3.91,5.73,5.14,7.55,1.77,2.61,5,3.78,8.09,4.44A42.72,42.72,0,0,0,72,365.27c2.94-1.31,5.86-3.1,7.35-6C80.91,356.27,80.55,352.61,80,349.22ZM70.57,314.8c-1.63,1.39-4.08.71-6.22.6-2.58-.13-5.1.71-7.65,1.15s-5.39.42-7.44-1.16a7.61,7.61,0,0,1-2.66-5.09,20.69,20.69,0,0,1,.33-5.87A16.51,16.51,0,0,1,48.07,300a6.09,6.09,0,0,1,3.11-3.17c1.65-.82,7.64-1.38,9.94-1.72a14.88,14.88,0,0,1,5.21,4.35,35.681,35.681,0,0,1,4.44,8.31,11.73,11.73,0,0,1,1,3.59,4.08,4.08,0,0,1-1.2,3.44Z" fill="#fafafa"/>
      <path id="Caminho_7190" data-name="Caminho 7190" d="M80,349.22c-1-6.13-2.59-12.19-2.88-18.4-.2-4.26.2-8.55-.33-12.77-.64-5.1-2.6-9.91-4.55-14.66C71,300.31,69.59,297.08,67,295a9.54,9.54,0,0,0-5.5-1.92h0c-3.62-1.48-13.54-1.9-16.68,4.75-1.66,3.53-1.86,7.56-2.81,11.35-1.28,5.12-.36,6.8-2,11.8-3.56,10.67-9,23.92-7.38,35.06.31,2.17,3.91,5.73,5.14,7.55,1.77,2.61,5,3.78,8.09,4.44A42.72,42.72,0,0,0,72,365.27c2.94-1.31,5.86-3.1,7.35-6C80.91,356.27,80.55,352.61,80,349.22ZM70.57,314.8c-1.63,1.39-4.08.71-6.22.6-2.58-.13-5.1.71-7.65,1.15s-5.39.42-7.44-1.16a7.61,7.61,0,0,1-2.66-5.09,20.69,20.69,0,0,1,.33-5.87A16.51,16.51,0,0,1,48.07,300a6.09,6.09,0,0,1,3.11-3.17c1.65-.82,7.64-1.38,9.94-1.72a14.88,14.88,0,0,1,5.21,4.35,35.681,35.681,0,0,1,4.44,8.31,11.73,11.73,0,0,1,1,3.59,4.08,4.08,0,0,1-1.2,3.44Z" fill="none"/>
      <path id="Caminho_7191" data-name="Caminho 7191" d="M70.57,314.8a4,4,0,0,0,.9-1.46,4.8,4.8,0,0,0,.22-2,9.58,9.58,0,0,0-.74-2.66,52.661,52.661,0,0,0-3.23-6.76,16.39,16.39,0,0,0-6.7-6.54h.14l-4.85.65c-.84.12-1.69.24-2.54.4a11.94,11.94,0,0,0-2.48.68h0a5.68,5.68,0,0,0-2.92,2.95,13.91,13.91,0,0,0-1.05,3.69c-.21,1.27-.42,2.52-.5,3.75a9.6,9.6,0,0,0,1.59,6.68A5.93,5.93,0,0,0,51,316.07a9.1,9.1,0,0,0,3,.51,25.66,25.66,0,0,0,5.56-.81,18.762,18.762,0,0,1,4.68-.52c1.4.08,2.56.31,3.52.31a5,5,0,0,0,2.15-.38c.46-.22.66-.4.67-.38a2.24,2.24,0,0,1-.62.48,4.78,4.78,0,0,1-2.2.48c-1,0-2.17-.16-3.53-.22a19,19,0,0,0-4.59.59A25.553,25.553,0,0,1,54,317a9.4,9.4,0,0,1-3.18-.51,6.42,6.42,0,0,1-2.79-2,10,10,0,0,1-1.72-7c.09-1.26.29-2.52.5-3.8a14.58,14.58,0,0,1,1.09-3.83,6.26,6.26,0,0,1,3.2-3.21h0a11.751,11.751,0,0,1,2.62-.71c.86-.16,1.72-.28,2.56-.4l4.85-.62h.14a16.61,16.61,0,0,1,6.83,6.77,50,50,0,0,1,3.17,6.85,9.84,9.84,0,0,1,.68,2.75,4.8,4.8,0,0,1-.29,2.09,3.44,3.44,0,0,1-.7,1.12,1.469,1.469,0,0,1-.39.3Z" fill="#263238"/>
      <path id="Caminho_7192" data-name="Caminho 7192" d="M80,349.22a1.831,1.831,0,0,0,.12.52,10,10,0,0,1,.24,1.55,16.59,16.59,0,0,1-.16,6,9.23,9.23,0,0,1-2,3.88,14.57,14.57,0,0,1-4.1,3.2,41.088,41.088,0,0,1-12,4.09,42.931,42.931,0,0,1-15.3,0c-2.68-.5-5.6-1.21-7.93-3.17a8.34,8.34,0,0,1-1.5-1.69c-.42-.59-.91-1.17-1.39-1.75a35.541,35.541,0,0,1-2.8-3.65,5.71,5.71,0,0,1-.88-2.2c-.07-.78-.19-1.57-.22-2.37a37.169,37.169,0,0,1,.08-4.83,60.219,60.219,0,0,1,1.73-9.8c.84-3.27,1.87-6.55,3-9.84.57-1.65,1.13-3.3,1.7-5s1.19-3.34,1.64-5a29.291,29.291,0,0,0,.73-5.29,30.6,30.6,0,0,1,.91-5.26c.78-3.4,1.06-6.92,2.38-10.13a9.46,9.46,0,0,1,3.12-4.07,12.269,12.269,0,0,1,4.6-2,18.33,18.33,0,0,1,4.88-.39,15.671,15.671,0,0,1,4.71.9l.15.06v.18l-.23-.24a9.7,9.7,0,0,1,6.31,2.55,16.63,16.63,0,0,1,3.62,5.46,107.673,107.673,0,0,1,4.31,11.3,36.86,36.86,0,0,1,1.2,5.43,40.341,40.341,0,0,1,.33,5.17c0,3.32-.12,6.38.08,9.13a115.417,115.417,0,0,0,1.92,12.75c.27,1.47.47,2.61.59,3.38.06.37.1.66.13.87a1.14,1.14,0,0,1,0,.3.949.949,0,0,0-.07-.29l-.17-.87c-.15-.78-.37-1.91-.66-3.36A108.331,108.331,0,0,1,77,331.94c-.22-2.77-.1-5.84-.14-9.14a41.469,41.469,0,0,0-.35-5.13,36.06,36.06,0,0,0-1.21-5.36A110.3,110.3,0,0,0,71,301.07a16.271,16.271,0,0,0-3.54-5.3,9.19,9.19,0,0,0-6-2.41h-.22v-.25l.15.22a15,15,0,0,0-4.55-.86,18.1,18.1,0,0,0-4.75.39,11.55,11.55,0,0,0-4.41,1.93,8.89,8.89,0,0,0-2.95,3.85c-1.28,3.12-1.56,6.61-2.35,10.05a30.229,30.229,0,0,0-.89,5.2,30.169,30.169,0,0,1-.75,5.37c-.46,1.75-1.08,3.41-1.64,5.08s-1.14,3.32-1.71,5c-1.11,3.29-2.14,6.56-3,9.81a58.5,58.5,0,0,0-1.73,9.7,34.62,34.62,0,0,0-.09,4.77c0,.78.14,1.56.21,2.33a5.05,5.05,0,0,0,.85,2,34.778,34.778,0,0,0,2.76,3.61c.47.59,1,1.16,1.4,1.78A7.869,7.869,0,0,0,39.21,365c2.2,1.86,5,2.59,7.71,3.09a42.86,42.86,0,0,0,15.15.07,41.219,41.219,0,0,0,11.88-4A14.45,14.45,0,0,0,78,361a9.09,9.09,0,0,0,2-3.77,16.88,16.88,0,0,0,.24-6c-.08-.66-.14-1.18-.19-1.55S80,349.22,80,349.22Z" fill="#263238"/>
      <path id="Caminho_7193" data-name="Caminho 7193" d="M66.16,280.35s2.59,9.54,2.64,11.17c0,1.25-1.21,8.48-1.8,11.8a2.41,2.41,0,0,1-2.69,2,.861.861,0,0,1-.23-.06,2.2,2.2,0,0,1-1.4-1.84A2.57,2.57,0,0,1,60,304.84c-1.89-.27-1.93-2.61-1.93-2.61a3.108,3.108,0,0,1-.34.28,2.28,2.28,0,0,1-3.6-1.69l-.07-1.06A2.24,2.24,0,0,1,52,300.84c-2.47-.43-2.08-6.07-2.08-6.07l2.21-15v-9.11L67,274.25Z" fill="#f5f5f5"/>
      <path id="Caminho_7194" data-name="Caminho 7194" d="M68.05,296.33a11.37,11.37,0,0,0-.79,3.46,14.23,14.23,0,0,0-.3,3.54,11.38,11.38,0,0,0,.79-3.47,14.15,14.15,0,0,0,.3-3.53Z" fill="#e0e0e0"/>
      <path id="Caminho_7195" data-name="Caminho 7195" d="M63.5,297.39a7.11,7.11,0,0,0-.78,3,7.24,7.24,0,0,0,.05,3.08,13.36,13.36,0,0,0,.45-3,14.459,14.459,0,0,0,.28-3.08Z" fill="#e0e0e0"/>
      <path id="Caminho_7196" data-name="Caminho 7196" d="M64.65,293.57c-.05-.13-.49,0-.84.35s-.38.83-.25.87.35-.24.63-.54S64.71,293.7,64.65,293.57Z" fill="#e0e0e0"/>
      <path id="Caminho_7197" data-name="Caminho 7197" d="M58.77,295.79a11.2,11.2,0,0,0-.65,3.28,11,11,0,0,0-.16,3.34,22.65,22.65,0,0,0,.81-6.62Z" fill="#e0e0e0"/>
      <path id="Caminho_7198" data-name="Caminho 7198" d="M61.5,291.72c0-.06-.11-.2-.4-.28a1.53,1.53,0,0,0-1.17.15,1.59,1.59,0,0,0-.75.92.866.866,0,0,0,0,.5,2.7,2.7,0,0,1,1-1C60.86,291.64,61.45,291.85,61.5,291.72Z" fill="#e0e0e0"/>
      <path id="Caminho_7199" data-name="Caminho 7199" d="M54.19,293.89a9.19,9.19,0,0,0-.34,3,9,9,0,0,0,.15,3,9.28,9.28,0,0,0,.35-3,9.14,9.14,0,0,0-.16-3Z" fill="#e0e0e0"/>
      <path id="Caminho_7200" data-name="Caminho 7200" d="M57.28,290c0-.06-.14-.18-.44-.22a1.86,1.86,0,0,0-1.1.25c-.77.46-1.11,1.05-1,1.13s.63-.32,1.27-.69S57.23,290.11,57.28,290Z" fill="#e0e0e0"/>
      <path id="Caminho_7201" data-name="Caminho 7201" d="M73.27,340.78a3.36,3.36,0,0,0-1.85-2.59c-1.54-.66-3.35.26-4.44,1.54s-1.73,2.88-2.73,4.23a9.42,9.42,0,0,1-7.52,3.69c-3.53,0-7.06-2.08-10.43-1a3,3,0,0,0-2.3,2.44,3.27,3.27,0,0,0,1.07,2.15,11.61,11.61,0,0,0,6.33,3.47,31.86,31.86,0,0,0,12.15-2.84c4.44-1.88,7.7-4.23,9.22-7.86a6,6,0,0,0,.5-3.23Z" fill="#e0e0e0"/>
      <path id="Caminho_7202" data-name="Caminho 7202" d="M72.69,345.75a4.762,4.762,0,0,1-.71.78,21.065,21.065,0,0,1-2.19,1.88A31.48,31.48,0,0,1,61.47,353a31.86,31.86,0,0,1-9.31,1.9,23.5,23.5,0,0,1-2.88,0,3.629,3.629,0,0,1-1.05-.14c0-.09,1.51,0,3.91-.2a35,35,0,0,0,17.44-6.4C71.53,346.71,72.62,345.68,72.69,345.75Z" fill="#263238"/>
      <path id="Caminho_7203" data-name="Caminho 7203" d="M71.47,327a6.751,6.751,0,0,1-.13,1.32c-.11.84-.3,2.06-.6,3.55a33.271,33.271,0,0,1-1.44,5.17,19.86,19.86,0,0,1-3.3,5.74,13.19,13.19,0,0,1-5.31,3.9,13,13,0,0,1-5.32.86,13.381,13.381,0,0,1-3.57-.62,6.765,6.765,0,0,1-.92-.35,1.25,1.25,0,0,1-.31-.16,21,21,0,0,0,4.81.76,12.63,12.63,0,0,0,10.22-4.73c3-3.53,4.06-7.72,4.76-10.63.35-1.47.59-2.68.76-3.51A6.06,6.06,0,0,1,71.47,327Z" fill="#263238"/>
      <path id="Caminho_7204" data-name="Caminho 7204" d="M44.66,341.54a4.51,4.51,0,0,1-1.32-1.32,11.84,11.84,0,0,1-2.28-8.52,4.36,4.36,0,0,1,.49-1.79,14.93,14.93,0,0,0,3.11,11.63Z" fill="#263238"/>
      <path id="Caminho_7205" data-name="Caminho 7205" d="M45.93,316.64a17.8,17.8,0,0,1-.75-3.18,28.94,28.94,0,0,1-.48-7.9,15,15,0,0,1,2.7-7.42,10,10,0,0,1,1.65-1.76c.45-.36.72-.52.74-.49a23.652,23.652,0,0,0-2.09,2.46,15.84,15.84,0,0,0-2.48,7.26,33.93,33.93,0,0,0,.33,7.79,23.9,23.9,0,0,1,.38,3.24Z" fill="#263238"/>
      <path id="Caminho_7206" data-name="Caminho 7206" d="M71.68,310.06a2,2,0,0,1,.21.79,6.25,6.25,0,0,1-.12,2.25,9.26,9.26,0,0,1-4.46,5.76,15.3,15.3,0,0,1-7.13,1.76,19.389,19.389,0,0,1-2.22-.07,2.149,2.149,0,0,1-.81-.13c0-.08,1.17,0,3-.17a16.45,16.45,0,0,0,6.88-1.84,9.37,9.37,0,0,0,4.36-5.4,10.27,10.27,0,0,0,.29-2.95Z" fill="#263238"/>
      <path id="Caminho_7207" data-name="Caminho 7207" d="M70.83,307.16a4.391,4.391,0,0,1,.92,1.53,12.11,12.11,0,0,1,.35,8.52,4.64,4.64,0,0,1-.79,1.61,20.81,20.81,0,0,0,.87-5.88,20.28,20.28,0,0,0-1.35-5.78Z" fill="#263238"/>
      <path id="Caminho_7208" data-name="Caminho 7208" d="M178.06,137.18h0l-15.57,22,15,12S187.56,150.9,191.77,141l-11.71-7.53Z" fill="#ffbe9d"/>
      <path id="Caminho_7209" data-name="Caminho 7209" d="M200.35,117.68a.67.67,0,0,0-1.3-.07l-2.36,8.29s1-11.79.93-14.24a7.92,7.92,0,0,0-.15-1.41,1.41,1.41,0,0,0-2.77.14l-1.38,11s.05-12.12-.32-15.06c-.25-2-1.18-2-2-1.45a3,3,0,0,0-1.32,2.18l-1.52,12.16s.56-9.07.4-13c-.1-2.35-1-2.42-1.86-2a2.77,2.77,0,0,0-1.46,2l-2.22,16c-1.39-3.32-7-6.16-8.42-4.46-1.2,1.48,6.36,3.29,6.42,14L179.27,135l11.7,7.95c1-2.17,1.73-4,2.19-5.32a11.28,11.28,0,0,0,1.83-1.27c2.75-2.36,4.36-11.77,4.8-13.43a13.42,13.42,0,0,0,.56-5.25Z" fill="#f5f5f5"/>
      <path id="Caminho_7210" data-name="Caminho 7210" d="M194.46,130.8a14.19,14.19,0,0,0-5.34,1.28l-.28.14-.08-.31a8.72,8.72,0,0,0-.38-1.16,9.71,9.71,0,0,0-2.75-3.8c-.94-.79-1.64-1.13-1.6-1.2a4.23,4.23,0,0,1,1.83.91,9,9,0,0,1,3,3.9,9.711,9.711,0,0,1,.39,1.23l-.37-.17a9.6,9.6,0,0,1,4-1,3.83,3.83,0,0,1,1.58.18Z" fill="#e0e0e0"/>
      <path id="Caminho_7211" data-name="Caminho 7211" d="M193.53,126.6a35.55,35.55,0,0,1-5.37-2.71,7.24,7.24,0,0,1,2.86,1,7.08,7.08,0,0,1,2.51,1.71Z" fill="#e0e0e0"/>
      <path id="Caminho_7212" data-name="Caminho 7212" d="M176.26,105.48a5.28,5.28,0,0,1-.3-2,14.35,14.35,0,0,1,3-9.2,5.54,5.54,0,0,1,1.44-1.44,23.36,23.36,0,0,0-3.25,5.94,23.321,23.321,0,0,0-.89,6.7Z" fill="#263238"/>
      <path id="Caminho_7213" data-name="Caminho 7213" d="M174.45,114.22a5.227,5.227,0,0,1-.38-.7,15.317,15.317,0,0,1-.77-2,23.73,23.73,0,0,1,.06-14.22,17,17,0,0,1,.78-2c.23-.46.36-.71.4-.7s-.35,1.08-.83,2.84a27.13,27.13,0,0,0-.06,14C174.11,113.14,174.54,114.19,174.45,114.22Z" fill="#263238"/>
      <path id="Caminho_7214" data-name="Caminho 7214" d="M207.23,118.7a40.1,40.1,0,0,0,.58-8.2,39.781,39.781,0,0,0-1.63-8.07,7.84,7.84,0,0,1,1,2.23,22.8,22.8,0,0,1,.75,11.7A7.9,7.9,0,0,1,207.23,118.7Z" fill="#263238"/>
      <path id="Caminho_7215" data-name="Caminho 7215" d="M210.65,124.65a30,30,0,0,0,1.91-8.81,29.54,29.54,0,0,0-1.35-8.91,8.459,8.459,0,0,1,1,2.48,20.41,20.41,0,0,1-.41,12.83A8.66,8.66,0,0,1,210.65,124.65Z" fill="#263238"/>
      <path id="Caminho_7216" data-name="Caminho 7216" d="M97.63,429.05,98.07,448S79,454.75,78.73,458.26l36.7.47.53-29.5Z" fill="#ffa45e"/>
      <g id="Grupo_6235" data-name="Grupo 6235" opacity="0.6">
        <path id="Caminho_7217" data-name="Caminho 7217" d="M109.43,446.51a1.51,1.51,0,0,1,1,1.73,1.45,1.45,0,0,1-1.7,1,1.59,1.59,0,0,1-1.07-1.83,1.51,1.51,0,0,1,1.89-.87" fill="#fff"/>
      </g>
      <g id="Grupo_6236" data-name="Grupo 6236" opacity="0.6">
        <path id="Caminho_7218" data-name="Caminho 7218" d="M115.43,458.73l-.07-3-35.16.66s-1.64.69-1.47,1.85Z" fill="#fff"/>
      </g>
      <path id="Caminho_7219" data-name="Caminho 7219" d="M97.47,447.76c0,.18.9.28,1.78.86s1.33,1.35,1.5,1.28-.09-1.11-1.16-1.8S97.44,447.6,97.47,447.76Z" fill="#263238"/>
      <path id="Caminho_7220" data-name="Caminho 7220" d="M93.6,449.31c0,.17.73.49,1.33,1.25s.77,1.57.94,1.57.31-1-.45-2S93.61,449.14,93.6,449.31Z" fill="#263238"/>
      <path id="Caminho_7221" data-name="Caminho 7221" d="M91.36,453.89c.16,0,.42-.86,0-1.84s-1.28-1.39-1.35-1.24.43.68.78,1.49S91.18,453.87,91.36,453.89Z" fill="#263238"/>
      <path id="Caminho_7222" data-name="Caminho 7222" d="M97.85,443.44c.07.17.9-.07,1.91,0s1.8.41,1.89.26-.65-.8-1.84-.88S97.77,443.3,97.85,443.44Z" fill="#263238"/>
      <g id="Grupo_6237" data-name="Grupo 6237" opacity="0.3">
        <path id="Caminho_7223" data-name="Caminho 7223" d="M97.72,432.79l.07,3.38,18.04.06.08-3.89Z"/>
      </g>
      <path id="Caminho_7224" data-name="Caminho 7224" d="M97.83,439.63a3.55,3.55,0,0,0,1.84,0,8.131,8.131,0,0,0,1.93-.56,8.935,8.935,0,0,0,1.06-.55,2.081,2.081,0,0,0,.57-.43.77.77,0,0,0,.09-1,1,1,0,0,0-.78-.42,2.361,2.361,0,0,0-.69.09,5.754,5.754,0,0,0-1.15.38,6.46,6.46,0,0,0-1.7,1.15c-.86.77-1.16,1.44-1.1,1.48s.5-.5,1.38-1.14a7.06,7.06,0,0,1,1.65-.9,5.919,5.919,0,0,1,1.06-.31c.39-.1.72-.1.82.07s0,.1,0,.21a1.89,1.89,0,0,1-.41.31,7.282,7.282,0,0,1-1,.54,9.9,9.9,0,0,1-1.78.66,12,12,0,0,0-1.79.42Z" fill="#263238"/>
      <path id="Caminho_7225" data-name="Caminho 7225" d="M98.06,439.89a2.967,2.967,0,0,0,.51-1.77,6,6,0,0,0-.22-2,5.88,5.88,0,0,0-.46-1.12,1.52,1.52,0,0,0-1.16-.94.85.85,0,0,0-.77.5,2.5,2.5,0,0,0-.2.67,4.21,4.21,0,0,0,.74,3.15c.71,1,1.45,1.18,1.47,1.12a7.85,7.85,0,0,1-1.1-1.36,4.46,4.46,0,0,1-.56-1.74,3.81,3.81,0,0,1,0-1.06c.06-.39.21-.7.36-.66a1.338,1.338,0,0,1,.64.61,6.219,6.219,0,0,1,.44,1,6.769,6.769,0,0,1,.33,1.84C98.17,439.19,98,439.86,98.06,439.89Z" fill="#263238"/>
      <path id="Caminho_7226" data-name="Caminho 7226" d="M164.4,429.8l-.71,18.9s19,7.07,19.18,10.58l-36.7-.07-.1-29.49Z" fill="#ffa45e"/>
      <g id="Grupo_6238" data-name="Grupo 6238" opacity="0.6">
        <path id="Caminho_7227" data-name="Caminho 7227" d="M152.34,447.09a1.5,1.5,0,0,0-1,1.71,1.44,1.44,0,0,0,1.69,1,1.58,1.58,0,0,0,1.09-1.81,1.5,1.5,0,0,0-1.87-.9" fill="#fff"/>
      </g>
      <g id="Grupo_6239" data-name="Grupo 6239" opacity="0.6">
        <path id="Caminho_7228" data-name="Caminho 7228" d="M146.17,459.21l.11-3,35.14,1.17s1.64.72,1.45,1.87Z" fill="#fff"/>
      </g>
      <path id="Caminho_7229" data-name="Caminho 7229" d="M164.28,448.51c0,.18-.9.26-1.78.84s-1.36,1.32-1.52,1.25.1-1.1,1.18-1.78S164.32,448.35,164.28,448.51Z" fill="#263238"/>
      <path id="Caminho_7230" data-name="Caminho 7230" d="M168.13,450.11c0,.18-.74.48-1.35,1.24s-.78,1.55-1,1.55-.29-1,.48-1.95S168.12,449.94,168.13,450.11Z" fill="#263238"/>
      <path id="Caminho_7231" data-name="Caminho 7231" d="M170.31,454.72c-.17,0-.41-.86.05-1.84s1.3-1.37,1.37-1.22-.44.68-.81,1.49S170.48,454.71,170.31,454.72Z" fill="#263238"/>
      <path id="Caminho_7232" data-name="Caminho 7232" d="M164,444.19c-.08.16-.9-.09-1.91,0s-1.81.38-1.9.23.67-.79,1.86-.85S164.05,444.05,164,444.19Z" fill="#263238"/>
      <g id="Grupo_6240" data-name="Grupo 6240" opacity="0.3">
        <path id="Caminho_7233" data-name="Caminho 7233" d="M164.25,433.54l-.12,3.37-18.04-.2-.02-3.89Z"/>
      </g>
      <path id="Caminho_7234" data-name="Caminho 7234" d="M164,440.37a3.44,3.44,0,0,1-1.84,0,8.479,8.479,0,0,1-1.92-.6,7.656,7.656,0,0,1-1.05-.56,2.469,2.469,0,0,1-.56-.43.77.77,0,0,1-.08-.95,1,1,0,0,1,.79-.41,2.36,2.36,0,0,1,.69.09,6.656,6.656,0,0,1,1.14.4A6.431,6.431,0,0,1,162.9,439c.85.79,1.14,1.46,1.08,1.5s-.5-.5-1.36-1.16a7.151,7.151,0,0,0-1.64-.92,6.772,6.772,0,0,0-1-.33c-.39-.1-.72-.11-.82.07s0,.09,0,.2a1.748,1.748,0,0,0,.4.32,10.753,10.753,0,0,0,1,.55,10.519,10.519,0,0,0,1.78.69,11.779,11.779,0,0,1,1.66.45Z" fill="#263238"/>
      <path id="Caminho_7235" data-name="Caminho 7235" d="M163.81,440.63a3.016,3.016,0,0,1-.49-1.78,6.061,6.061,0,0,1,.26-2,5.939,5.939,0,0,1,.47-1.12,1.51,1.51,0,0,1,1.17-.92.86.86,0,0,1,.77.51,2.8,2.8,0,0,1,.19.68,4.6,4.6,0,0,1,0,1.23,4.2,4.2,0,0,1-.79,1.9c-.72.95-1.47,1.16-1.48,1.1a7.394,7.394,0,0,0,1.11-1.34,4.41,4.41,0,0,0,.59-1.73,3.8,3.8,0,0,0,0-1.06c0-.39-.2-.71-.34-.67a1.363,1.363,0,0,0-.65.6,6.364,6.364,0,0,0-.46,1,6.781,6.781,0,0,0-.36,1.83C163.71,439.93,163.9,440.6,163.81,440.63Z" fill="#263238"/>
      <path id="Caminho_7236" data-name="Caminho 7236" d="M142.71,247.35l27.77,199.29-26.94-.53L113.73,279.14l6.56,167.77-33.4-2.06L78.72,250.87Z" fill="#263238"/>
      <path id="Caminho_7237" data-name="Caminho 7237" d="M112.15,278.42a5.319,5.319,0,0,1,.88-.59,11.27,11.27,0,0,0,2.24-1.76,4.64,4.64,0,0,0,1-1.63,6,6,0,0,0,.21-2.19c-.13-1.58-.38-3.36-.58-5.21-.41-3.71-.76-7.07-1-9.51-.11-1.22-.19-2.2-.24-2.89a5.19,5.19,0,0,1,0-1.07,4.21,4.21,0,0,1,.22,1.05c.11.68.25,1.66.41,2.87.32,2.43.73,5.78,1.14,9.49.2,1.86.43,3.61.54,5.25a6.26,6.26,0,0,1-.28,2.35,4.84,4.84,0,0,1-1.12,1.74,9.15,9.15,0,0,1-2.41,1.68,3.68,3.68,0,0,1-1.01.42Z" fill="#455a64"/>
      <path id="Caminho_7238" data-name="Caminho 7238" d="M107.73,254.39a.9.9,0,0,1,.52-.14,2.27,2.27,0,0,1,1.39.5,2.53,2.53,0,0,1,1,2,2.409,2.409,0,1,1-4.72-.7,2.2,2.2,0,0,1,.79-1.25c.29-.21.49-.24.49-.22a2.87,2.87,0,0,0-.92,1.55,2.17,2.17,0,0,0,.43,1.79,2.06,2.06,0,0,0,3.45-1.19,2.24,2.24,0,0,0-.76-1.68,2.77,2.77,0,0,0-1.67-.66Z" fill="#455a64"/>
      <path id="Caminho_7239" data-name="Caminho 7239" d="M93.83,254.1a6,6,0,0,1-.5,2.31,12.36,12.36,0,0,1-8.24,7.48,6.22,6.22,0,0,1-2.35.28c0-.1.89-.19,2.24-.63a13.64,13.64,0,0,0,4.77-2.8A13.44,13.44,0,0,0,93,256.27C93.56,255,93.73,254.08,93.83,254.1Z" fill="#455a64"/>
      <path id="Caminho_7240" data-name="Caminho 7240" d="M144.8,261.74a8,8,0,0,1-2.58-.18,18.81,18.81,0,0,1-10.74-6.11,8.46,8.46,0,0,1-1.49-2.13,27.359,27.359,0,0,0,6.6,5.64,27,27,0,0,0,8.21,2.78Z" fill="#455a64"/>
      <path id="Caminho_7241" data-name="Caminho 7241" d="M83.36,265.79a2.37,2.37,0,0,0,.07.46c.07.31.08.78.14,1.35.12,1.22.28,3,.5,5.23.43,4.53,1,11.1,1.62,19.22,1.26,16.24,2.68,38.71,3.57,63.55s1.08,47.36,1,63.65c0,8.14-.13,14.73-.24,19.29,0,2.26-.09,4-.12,5.24v1.83a4.241,4.241,0,0,1,0-.47v-6.61c0-4.55.08-11.14.07-19.28,0-16.29-.25-38.79-1.13-63.63s-2.25-47.3-3.42-63.54c-.58-8.13-1.08-14.7-1.45-19.24-.18-2.25-.31-4-.41-5.23,0-.58-.07-1-.09-1.36A4,4,0,0,1,83.36,265.79Z" fill="#455a64"/>
      <path id="Caminho_7242" data-name="Caminho 7242" d="M176.21,137l-18.32,26.82s-26.92-20.57-33.24-22c-4.14-1-22.19-2-22.19-2L83,143.41l-2.74-1.67c-1.45,1.09-18,10.7-22.4,18.7-1.16,2.1-6.48,65.79-6.48,65.79L49.9,270.07l18.93,4.62,2.09-3.32,1.53-40.27L74.21,191,77,216.44l.12,30.91,1.62,4.94,64.44-1.72,1.78-9.82-4.37-14.46L130.9,175.5s26.74,20.12,33.63,16.5,26.08-44.58,26.08-44.58Z" fill="#ffa45e"/>
      <path id="Caminho_7243" data-name="Caminho 7243" d="M130.8,171.26c-.14,0-1.52-5.55-3.07-12.46s-2.71-12.54-2.57-12.58,1.52,5.55,3.08,12.46S130.94,171.23,130.8,171.26Z" fill="#263238"/>
      <path id="Caminho_7244" data-name="Caminho 7244" d="M132.14,243a2.16,2.16,0,0,1-.46.17l-1.33.4c-1.16.34-2.86.79-5,1.28a141.841,141.841,0,0,1-33.53,3.72c-2.16,0-3.91-.09-5.12-.17l-1.39-.1a1.65,1.65,0,0,1-.48-.07,1.721,1.721,0,0,1,.49,0h6.5a160,160,0,0,0,16.82-1c6.55-.72,12.41-1.8,16.63-2.7,2.11-.46,3.81-.84,5-1.12l1.36-.31a1.75,1.75,0,0,1,.51-.1Z" fill="#263238"/>
      <path id="Caminho_7245" data-name="Caminho 7245" d="M126.46,216.4a5.73,5.73,0,0,1-.59,1.22,27.92,27.92,0,0,1-2,3.09,42.33,42.33,0,0,1-8.72,8.45,85.1,85.1,0,0,1-10.34,6.39c-1.37.73-2.49,1.3-3.27,1.68a6.269,6.269,0,0,1-1.24.55,7,7,0,0,1,1.14-.72l3.19-1.83a106.1,106.1,0,0,0,10.21-6.48,46.25,46.25,0,0,0,8.74-8.27,26.137,26.137,0,0,0,2.14-3,7.822,7.822,0,0,1,.74-1.08Z" fill="#263238"/>
      <path id="Caminho_7246" data-name="Caminho 7246" d="M69.33,236.14a8.06,8.06,0,0,1-2.28-.9,20.54,20.54,0,0,1-8.41-8.08,7.33,7.33,0,0,1-1-2.24,33.4,33.4,0,0,0,5,6.52,34.41,34.41,0,0,0,6.69,4.7Z" fill="#263238"/>
      <path id="Caminho_7247" data-name="Caminho 7247" d="M162.88,180.4a9.521,9.521,0,0,1-1.57-2.16,26.559,26.559,0,0,1-2.62-5.9,26.909,26.909,0,0,1-1.13-6.36,9.631,9.631,0,0,1,.09-2.67,22.854,22.854,0,0,1,.28,2.64,32.88,32.88,0,0,0,3.7,12.11C162.39,179.5,162.94,180.35,162.88,180.4Z" fill="#263238"/>
      <path id="Caminho_7248" data-name="Caminho 7248" d="M165.9,177.37a8.581,8.581,0,0,1-1.42-1.8,48.2,48.2,0,0,1-5.18-9.76,8.56,8.56,0,0,1-.69-2.18c.14-.06,1.44,3.18,3.46,7S166,177.28,165.9,177.37Z" fill="#263238"/>
      <path id="Caminho_7249" data-name="Caminho 7249" d="M65.63,268.91a9.73,9.73,0,0,1-.88,4.43,5,5,0,0,1,.19-2.26,5.18,5.18,0,0,1,.69-2.17Z" fill="#263238"/>
      <path id="Caminho_7250" data-name="Caminho 7250" d="M60.31,267.58a14.78,14.78,0,0,1-.19,2.29,13.779,13.779,0,0,1-.09,2.29,4.9,4.9,0,0,1,.28-4.58Z" fill="#263238"/>
      <path id="Caminho_7251" data-name="Caminho 7251" d="M55,271.29c-.12.06-.62-.79-.7-2s.3-2.08.43-2a13.675,13.675,0,0,1,.09,2A8.952,8.952,0,0,1,55,271.29Z" fill="#263238"/>
      <path id="Caminho_7252" data-name="Caminho 7252" d="M75.15,194a1,1,0,0,1-.1-.4c0-.27-.11-.66-.17-1.17-.12-1-.22-2.5-.28-4.33s-.07-4-.11-6.42a51.82,51.82,0,0,0-.66-7.78,23.68,23.68,0,0,0-2.46-7.34,16.86,16.86,0,0,0-4-4.87A15,15,0,0,0,62.19,159a1.53,1.53,0,0,1,.41.05,8.75,8.75,0,0,1,1.16.28,12.619,12.619,0,0,1,3.84,2.06,16.63,16.63,0,0,1,4.19,4.91,23.4,23.4,0,0,1,2.55,7.49,49.29,49.29,0,0,1,.63,7.86v6.42c0,1.83.06,3.3.12,4.32A12.578,12.578,0,0,1,75.15,194Z" fill="#263238"/>
      <path id="Caminho_7253" data-name="Caminho 7253" d="M72.52,170.64a7.71,7.71,0,0,1-2.18,1.13,17.829,17.829,0,0,1-5.81,1.17,18.08,18.08,0,0,1-5.87-.81,7.531,7.531,0,0,1-2.24-1,26.39,26.39,0,0,0,8.1,1.29,26.5,26.5,0,0,0,8-1.78Z" fill="#fafafa"/>
      <path id="Caminho_7254" data-name="Caminho 7254" d="M126.24,155a2.43,2.43,0,0,1-.44.36c-.31.21-.73.57-1.34.94a27.29,27.29,0,0,1-5.41,2.63,42.61,42.61,0,0,1-8.66,2.1,99.456,99.456,0,0,1-10.88.82c-3.86.11-7.54.2-10.87.48a56.52,56.52,0,0,0-8.74,1.34,35.689,35.689,0,0,0-5.66,1.87c-1.3.56-2,.92-2,.88a2.31,2.31,0,0,1,.48-.31c.33-.17.8-.47,1.45-.76a32,32,0,0,1,5.66-2,51.66,51.66,0,0,1,8.79-1.46c3.35-.31,7-.42,10.89-.53a106.325,106.325,0,0,0,10.83-.78,44.2,44.2,0,0,0,8.61-2,30.178,30.178,0,0,0,5.42-2.47C125.57,155.43,126.21,155,126.24,155Z" fill="#fafafa"/>
      <path id="Caminho_7255" data-name="Caminho 7255" d="M141.88,153.57a6.68,6.68,0,0,1-.78,2.33,14.19,14.19,0,0,1-3.72,4.63,13.92,13.92,0,0,1-5.29,2.69,6.59,6.59,0,0,1-2.44.29c0-.09.92-.2,2.34-.64a16.091,16.091,0,0,0,5.07-2.74,15.83,15.83,0,0,0,3.71-4.41C141.5,154.43,141.79,153.54,141.88,153.57Z" fill="#fafafa"/>
      <path id="Caminho_7256" data-name="Caminho 7256" d="M73.35,198.39a11.879,11.879,0,0,0-3-.26,28.1,28.1,0,0,0-3.3.5,17.88,17.88,0,0,1-4.14.41,13.94,13.94,0,0,1-7.14-2.34A13.292,13.292,0,0,1,54,195.24c-.37-.4-.55-.63-.52-.65a25.129,25.129,0,0,0,2.49,1.8,14.72,14.72,0,0,0,7,2.13,19.281,19.281,0,0,0,4-.36,23,23,0,0,1,3.36-.4,7.46,7.46,0,0,1,2.29.28A2,2,0,0,1,73.35,198.39Z" fill="#fafafa"/>
      <path id="Caminho_7257" data-name="Caminho 7257" d="M130.69,179.33a3.491,3.491,0,0,1-.34.49,12,12,0,0,1-1.1,1.29,19.65,19.65,0,0,1-5,3.74,27.67,27.67,0,0,1-8.8,2.84,47.789,47.789,0,0,1-11.33.16c-4-.37-7.78-1-11.22-1.38a78.744,78.744,0,0,0-9.17-.69,40.909,40.909,0,0,0-6.18.41c-1.45.21-2.24.4-2.25.35a2.191,2.191,0,0,1,.56-.18c.37-.11.93-.23,1.65-.37a36.54,36.54,0,0,1,6.21-.58A75.079,75.079,0,0,1,93,186c3.46.4,7.23,1,11.21,1.34a48.559,48.559,0,0,0,11.22-.12,27.87,27.87,0,0,0,8.7-2.69,20.789,20.789,0,0,0,5-3.55C130.16,180,130.64,179.29,130.69,179.33Z" fill="#fafafa"/>
      <path id="Caminho_7258" data-name="Caminho 7258" d="M152.87,161.87a3.35,3.35,0,0,1,0,1,17.552,17.552,0,0,1-.26,2.65,22.661,22.661,0,0,1-1,3.82,27.781,27.781,0,0,1-2,4.4,26.639,26.639,0,0,1-2.84,3.91,23.35,23.35,0,0,1-2.86,2.72,16.581,16.581,0,0,1-2.18,1.52,3.45,3.45,0,0,1-.87.45c-.05-.09,1.14-.8,2.81-2.25a26.319,26.319,0,0,0,2.74-2.75,29.59,29.59,0,0,0,2.75-3.87,28.258,28.258,0,0,0,2-4.29,26.129,26.129,0,0,0,1.05-3.73C152.74,163.25,152.78,161.86,152.87,161.87Z" fill="#fafafa"/>
      <path id="Caminho_7259" data-name="Caminho 7259" d="M165.41,190.76a21.91,21.91,0,0,0,.54-4.06,23.61,23.61,0,0,0-2.36-9.53c-1.62-3.52-3.37-6.62-4.32-9a25.137,25.137,0,0,1-1-2.86,3.47,3.47,0,0,1-.23-1.1c.08,0,.51,1.5,1.58,3.82s2.82,5.37,4.45,8.94a22.08,22.08,0,0,1,2.25,9.75,11.55,11.55,0,0,1-.48,3,4.21,4.21,0,0,1-.43,1.04Z" fill="#fafafa"/>
      <path id="Caminho_7260" data-name="Caminho 7260" d="M180.46,167.8c-.09,0-.48-1.13-1.44-2.84a22.38,22.38,0,0,0-1.93-2.83,24.058,24.058,0,0,0-2.93-3,24.559,24.559,0,0,0-3.46-2.37,23,23,0,0,0-3.13-1.4c-1.84-.64-3-.83-3-.92a2.36,2.36,0,0,1,.86.06,13.169,13.169,0,0,1,2.3.52,18.28,18.28,0,0,1,3.24,1.32,21.529,21.529,0,0,1,3.56,2.39,20.861,20.861,0,0,1,3,3.09,18.69,18.69,0,0,1,1.88,2.95,12.829,12.829,0,0,1,.91,2.17A3.738,3.738,0,0,1,180.46,167.8Z" fill="#fafafa"/>
      <path id="Caminho_7261" data-name="Caminho 7261" d="M136.67,209.54a2.762,2.762,0,0,1-.62-.16c-.4-.12-1-.3-1.75-.48a25.891,25.891,0,0,0-6.62-.76,25.469,25.469,0,0,0-9.61,2.06c-3.45,1.41-6.95,3.6-10.79,5.63a40.52,40.52,0,0,1-5.82,2.55,31.49,31.49,0,0,1-5.77,1.33,32.08,32.08,0,0,1-10-.2,30,30,0,0,1-6.46-1.89c-.74-.3-1.29-.58-1.67-.77a2.339,2.339,0,0,1-.55-.32c0-.05.81.35,2.29.9a32.62,32.62,0,0,0,22,.46,40.918,40.918,0,0,0,5.74-2.52c3.81-2,7.34-4.21,10.85-5.62a25.18,25.18,0,0,1,9.78-2,24.52,24.52,0,0,1,6.68.92,18.247,18.247,0,0,1,1.74.58,4.508,4.508,0,0,1,.58.29Z" fill="#fafafa"/>
      <path id="Caminho_7262" data-name="Caminho 7262" d="M102,235.54a34.927,34.927,0,0,1-3.56.81c-2.2.47-5.22,1.19-8.49,2.19s-6.19,2.08-8.28,2.91a35.111,35.111,0,0,1-3.4,1.31,3.35,3.35,0,0,1,.84-.5c.56-.3,1.38-.69,2.42-1.15a74.509,74.509,0,0,1,8.3-3.11,73,73,0,0,1,8.58-2c1.11-.2,2-.33,2.64-.39a4.109,4.109,0,0,1,.95-.07Z" fill="#fafafa"/>
      <path id="Caminho_7263" data-name="Caminho 7263" d="M143.09,235a7.909,7.909,0,0,1-1.26.65,13.13,13.13,0,0,1-1.53.66c-.61.23-1.29.52-2.08.74a36.566,36.566,0,0,1-5.59,1.3,37.26,37.26,0,0,1-14-.55,36,36,0,0,1-5.48-1.74c-.77-.28-1.42-.63-2-.9a15.891,15.891,0,0,1-1.47-.77,7.869,7.869,0,0,1-1.21-.76c0-.09,1.8.94,4.83,2.09a39.515,39.515,0,0,0,19.28,2.16,41.145,41.145,0,0,0,5.56-1.18C141.23,235.74,143,234.85,143.09,235Z" fill="#fafafa"/>
      <path id="Caminho_7264" data-name="Caminho 7264" d="M58.75,227.39a7.08,7.08,0,0,1-3.82.42,7.08,7.08,0,0,1-3.66-1.17c.06-.14,1.66.45,3.71.65S58.72,227.24,58.75,227.39Z" fill="#fafafa"/>
      <path id="Caminho_7265" data-name="Caminho 7265" d="M72.74,223.53a35.72,35.72,0,0,0-7,.35,34.858,34.858,0,0,0-6.62,2.22,6.329,6.329,0,0,1,1.79-1.1,18.42,18.42,0,0,1,9.79-1.85,6.18,6.18,0,0,1,2.04.38Z" fill="#fafafa"/>
      <path id="Caminho_7266" data-name="Caminho 7266" d="M71.59,250.78a4.533,4.533,0,0,1-.78.37,16.841,16.841,0,0,1-2.23.7,23.63,23.63,0,0,1-15.13-1.38,17.112,17.112,0,0,1-2.06-1.09c-.47-.29-.72-.47-.7-.5s1.1.53,2.91,1.25a26.34,26.34,0,0,0,14.9,1.36C70.41,251.1,71.56,250.7,71.59,250.78Z" fill="#fafafa"/>
      <path id="Caminho_7267" data-name="Caminho 7267" d="M92.29,252.64c-.13.05-.56-.84-.73-2a3.47,3.47,0,0,1,.13-2.15c.15,0,.22.94.39,2.08a6.62,6.62,0,0,1,.21,2.07Z" fill="#263238"/>
      <path id="Caminho_7268" data-name="Caminho 7268" d="M105.54,251.72c-.15,0-.4-.82-.58-1.89s-.2-2,0-2,.39.83.57,1.9A3.616,3.616,0,0,1,105.54,251.72Z" fill="#263238"/>
      <path id="Caminho_7269" data-name="Caminho 7269" d="M116.37,251.72a13.28,13.28,0,0,1-.68-5.21,7.06,7.06,0,0,1,.6,2.57,6.85,6.85,0,0,1,.08,2.64Z" fill="#263238"/>
      <path id="Caminho_7270" data-name="Caminho 7270" d="M129,250.5a20.3,20.3,0,0,1-.31-3.26,19.44,19.44,0,0,1-.29-3.26,10.714,10.714,0,0,1,.6,6.52Z" fill="#263238"/>
      <path id="Caminho_7271" data-name="Caminho 7271" d="M138.09,251c-.15,0,.17-1.75.27-3.87a38.188,38.188,0,0,1,.11-3.88,9.19,9.19,0,0,1,.41,3.9A9,9,0,0,1,138.09,251Z" fill="#263238"/>
      <path id="Caminho_7272" data-name="Caminho 7272" d="M84,253.52a5.41,5.41,0,0,1-2.45-5.47c.16,0,.18,1.39.87,2.89S84.09,253.4,84,253.52Z" fill="#263238"/>
      <g id="Grupo_6241" data-name="Grupo 6241" opacity="0.3">
        <path id="Caminho_7273" data-name="Caminho 7273" d="M158.81,162.9c-1.57,1.29-1.61,3.66-1.28,5.67a26.54,26.54,0,0,0,5.71,12.54c.46.56,1.09,1.14,1.8,1s1.07-1.22,1-2a12.27,12.27,0,0,0-1.54-4.38l-6.27-12.46"/>
      </g>
      <g id="Grupo_6242" data-name="Grupo 6242" opacity="0.3">
        <path id="Caminho_7274" data-name="Caminho 7274" d="M76.87,236.31a15.21,15.21,0,0,0,5.36-9.49,38,38,0,0,0,0-11.12c-1.49-12.93-4.6-25.61-7.69-38.25q1.29,30,2.59,59.93"/>
      </g>
      <g id="Grupo_6243" data-name="Grupo 6243" opacity="0.3">
        <path id="Caminho_7275" data-name="Caminho 7275" d="M58.32,226.11a10.51,10.51,0,0,0-.92-3,5.77,5.77,0,0,1-.54-3.07,2.33,2.33,0,0,1,2.08-2c1.35,0,2.16,1.44,2.77,2.65a29.49,29.49,0,0,0,5.7,7.79,9.22,9.22,0,0,1,2,2.42,2.59,2.59,0,0,1-.33,3c-1,1-2.75.43-4-.29a15.38,15.38,0,0,1-7-8.24"/>
      </g>
      <path id="Caminho_7276" data-name="Caminho 7276" d="M73.07,104.23,79.8,145a12.51,12.51,0,0,0,13.58,10.42h0a12.52,12.52,0,0,0,11.23-13.51l-.66-7.76s9.84-2.42,9.1-12.41c-.36-4.82-1.9-14.67-3.4-23.58a18.75,18.75,0,0,0-21-15.46h0a18.53,18.53,0,0,0-15.58,21.53Z" fill="#ffbe9d"/>
      <path id="Caminho_7277" data-name="Caminho 7277" d="M104,134.17a23.29,23.29,0,0,1-13.33-2.57s3.7,6.92,13.58,5.15Z" fill="#eb996e"/>
      <path id="Caminho_7278" data-name="Caminho 7278" d="M108.64,106a1.44,1.44,0,0,1-1.25,1.56,1.37,1.37,0,0,1-1.58-1.16,1.44,1.44,0,0,1,1.25-1.56,1.37,1.37,0,0,1,1.58,1.16Z" fill="#263238"/>
      <path id="Caminho_7279" data-name="Caminho 7279" d="M107.93,103.35c-.16.2-1.31-.5-2.84-.37s-2.59,1-2.78.83.06-.43.52-.83a4,4,0,0,1,2.2-.89,3.78,3.78,0,0,1,2.29.53C107.82,102.94,108,103.26,107.93,103.35Z" fill="#263238"/>
      <path id="Caminho_7280" data-name="Caminho 7280" d="M92.91,107.37a1.44,1.44,0,0,1-1.25,1.56,1.37,1.37,0,0,1-1.58-1.16,1.42,1.42,0,0,1,1.24-1.56,1.38,1.38,0,0,1,1.59,1.16Z" fill="#263238"/>
      <path id="Caminho_7281" data-name="Caminho 7281" d="M92.88,104.94c-.16.21-1.31-.5-2.85-.36s-2.59,1-2.77.83.06-.43.52-.83a3.86,3.86,0,0,1,2.2-.89,3.78,3.78,0,0,1,2.29.52C92.77,104.53,93,104.85,92.88,104.94Z" fill="#263238"/>
      <path id="Caminho_7282" data-name="Caminho 7282" d="M99.43,115.84a10,10,0,0,1,2.45-.67c.39-.07.75-.18.8-.46a2,2,0,0,0-.36-1.14c-.45-.91-.93-1.87-1.42-2.88-2-4.1-3.45-7.49-3.28-7.57s1.9,3.18,3.88,7.29c.48,1,.94,2,1.37,2.91a2.23,2.23,0,0,1,.34,1.51,1,1,0,0,1-.6.63,2.6,2.6,0,0,1-.65.15,10.679,10.679,0,0,1-2.53.23Z" fill="#263238"/>
      <path id="Caminho_7283" data-name="Caminho 7283" d="M95,117.29c.25,0,.39,1.63,1.92,2.68s3.29.73,3.32,1-.37.36-1.12.44a4.15,4.15,0,0,1-2.76-.7,3.59,3.59,0,0,1-1.5-2.26C94.74,117.72,94.89,117.29,95,117.29Z" fill="#263238"/>
      <path id="Caminho_7284" data-name="Caminho 7284" d="M92.87,100.6c-.11.43-1.66.37-3.44.74s-3.2,1-3.47.64c-.12-.17.1-.59.65-1a5.75,5.75,0,0,1,2.51-1.13,5.86,5.86,0,0,1,2.75.08C92.56,100.1,92.92,100.4,92.87,100.6Z" fill="#263238"/>
      <path id="Caminho_7285" data-name="Caminho 7285" d="M105.77,97.28c-.23.37-1.32.13-2.59.25s-2.31.5-2.6.16c-.13-.16,0-.53.43-.91a3.81,3.81,0,0,1,4.19-.34C105.69,96.75,105.87,97.09,105.77,97.28Z" fill="#263238"/>
      <path id="Caminho_7286" data-name="Caminho 7286" d="M83,92.52h0a7.87,7.87,0,0,0-2.47,5.33,1.551,1.551,0,0,0,0,.21c-.15,2.88.17,5.77,0,8.65a12.92,12.92,0,0,1-2.84,8c-.79.88-2.27,1.56-3.06.68a2.37,2.37,0,0,1-.47-1.27c-1.13-6.83-3.54-12.77-4.15-20A6.09,6.09,0,0,1,72,89.06c1.41-1.21,3.15-2.49,4.89-1.84s4.18,3.58,5.59,4.8" fill="#263238"/>
      <path id="Caminho_7287" data-name="Caminho 7287" d="M76.83,108.62c-.17-.05-7-1.43-6.22,5.38s7.47,4.58,7.46,4.39S76.83,108.62,76.83,108.62Z" fill="#ffbe9d"/>
      <path id="Caminho_7288" data-name="Caminho 7288" d="M75.69,116.06a3.314,3.314,0,0,1-.3.21,1.21,1.21,0,0,1-.88.12,2.93,2.93,0,0,1-1.67-2.47,3.67,3.67,0,0,1,.13-1.73,1.34,1.34,0,0,1,.78-1,.61.61,0,0,1,.74.24c.11.18.08.32.12.33s.13-.13,0-.41a.82.82,0,0,0-.32-.39,1,1,0,0,0-.68-.1,1.68,1.68,0,0,0-1.11,1.21,4,4,0,0,0-.19,1.94c.21,1.37,1.06,2.57,2.08,2.73a1.27,1.27,0,0,0,1.06-.3C75.7,116.22,75.71,116.07,75.69,116.06Z" fill="#eb996e"/>
      <path id="Caminho_7289" data-name="Caminho 7289" d="M76.15,89.43c-2.3-2.25,1.24-7.18,4.27-9s7.74-1.31,11.28-1c2.23.18,4.52.62,6.66,0a15.23,15.23,0,0,0,4-2.12,11,11,0,0,1,4-1.89,4.12,4.12,0,0,1,4,1.35,2.58,2.58,0,0,1-.84,3.81,3.37,3.37,0,1,1,2.37,5.84c.77-.95,2.51-.13,2.69,1.08A3.58,3.58,0,0,1,113,90.51c-2.47,1.9-5.8,2.31-8.91,2.06s-6.14-1.1-9.25-1.44-8.32-1-10.93.7C82,93.09,81.12,96,79.8,95.72A4.22,4.22,0,0,1,77,93.25a12.34,12.34,0,0,1-.8-3.82" fill="#263238"/>
      <path id="Caminho_7290" data-name="Caminho 7290" d="M109.27,81.05a.713.713,0,0,1,.37.17,2.08,2.08,0,0,1,.81.78,2.93,2.93,0,0,1-.73,3.77,5.51,5.51,0,0,1-2.65,1.12,10.85,10.85,0,0,1-3.36,0,33.43,33.43,0,0,1-7.36-2.45,20.34,20.34,0,0,0-7.61-1.83,9.16,9.16,0,0,0-3.37.67,8.44,8.44,0,0,0-2.51,1.63,8.68,8.68,0,0,0-2.34,3.6A6.09,6.09,0,0,0,80.2,90a9.473,9.473,0,0,1,.43-1.51A8.67,8.67,0,0,1,83,85a8.09,8.09,0,0,1,2.46-1.56,8.88,8.88,0,0,1,3.29-.63,20.16,20.16,0,0,1,7.49,1.84,33.47,33.47,0,0,0,7.44,2.44,11.27,11.27,0,0,0,3.43,0,5.74,5.74,0,0,0,2.74-1.21,3.37,3.37,0,0,0,.83-1,2.71,2.71,0,0,0,.31-1.14,3,3,0,0,0-.44-1.8,2,2,0,0,0-.89-.78A1.33,1.33,0,0,0,109.27,81.05Z" fill="#455a64"/>
      <path id="Caminho_7291" data-name="Caminho 7291" d="M84.82,80.85a1.37,1.37,0,0,0-.45.05,5.65,5.65,0,0,0-1.15.37,6.73,6.73,0,0,0-3,2.58,6.81,6.81,0,0,0-1,3.83,5.889,5.889,0,0,0,.17,1.2,1.11,1.11,0,0,0,.15.42,9.4,9.4,0,0,1-.12-1.62A7.29,7.29,0,0,1,80.45,84a7.1,7.1,0,0,1,2.86-2.55C84.2,81,84.83,80.9,84.82,80.85Z" fill="#455a64"/>
      <path id="Caminho_7292" data-name="Caminho 7292" d="M70.89,100.44a1.25,1.25,0,0,0,.58.08A2.72,2.72,0,0,0,73,100a3.92,3.92,0,0,0,1.4-1.88,11.48,11.48,0,0,0,.57-2.8,11.36,11.36,0,0,1,.56-2.73,3.73,3.73,0,0,1,1.3-1.79,2.73,2.73,0,0,1,1.39-.55h.57a1.16,1.16,0,0,0-.57-.1,2.67,2.67,0,0,0-1.5.5,3.84,3.84,0,0,0-1.44,1.85,11.38,11.38,0,0,0-.59,2.8,12.22,12.22,0,0,1-.58,2.7,3.92,3.92,0,0,1-1.28,1.81,2.83,2.83,0,0,1-1.37.59C71.1,100.45,70.9,100.41,70.89,100.44Z" fill="#455a64"/>
      <path id="Caminho_7293" data-name="Caminho 7293" d="M71.85,104.88h.18a2.61,2.61,0,0,0,.49,0,6.11,6.11,0,0,0,1.79-.39,8.21,8.21,0,0,0,4.41-4A12.25,12.25,0,0,0,80,94.66a5.581,5.581,0,0,1,0-1,1.31,1.31,0,0,1,.31-.66,1.05,1.05,0,0,1,.56-.29.667.667,0,0,0-.63.21,1.29,1.29,0,0,0-.39.71,4.38,4.38,0,0,0-.07,1,12.67,12.67,0,0,1-1.3,5.73,8.32,8.32,0,0,1-4.22,3.94A10,10,0,0,1,71.85,104.88Z" fill="#455a64"/>
      <path id="Caminho_7294" data-name="Caminho 7294" d="M112.67,115s-1.7,1.84-5.44,1.29a68.59,68.59,0,0,0-13.79,1c-3.91.74-9.38-1.1-9.38-1.1L80.22,125s7.84,9.88,20.9,9.86c6.11,0,10.77-4.25,12-7.65S112.67,115,112.67,115Z" fill="#ebebeb"/>
      <path id="Caminho_7295" data-name="Caminho 7295" d="M112.67,115a6.591,6.591,0,0,1,.2.9c.11.59.26,1.46.41,2.59s.31,2.52.38,4.14a20.9,20.9,0,0,1,0,2.61,7.43,7.43,0,0,1-.71,2.86,12.52,12.52,0,0,1-4.56,4.88,13.76,13.76,0,0,1-7.36,2.14,27.44,27.44,0,0,1-16.41-5.69A27.141,27.141,0,0,1,80,125.2l-.1-.11.06-.15c1.34-3.08,2.64-6,3.85-8.85l.09-.2.22.06a27.07,27.07,0,0,0,6,1.23,13.93,13.93,0,0,0,2.82,0c.91-.13,1.83-.31,2.7-.42a79.879,79.879,0,0,1,9.22-.64h1.84c.58,0,1.11.15,1.61.15a7.19,7.19,0,0,0,2.51-.29,5.38,5.38,0,0,0,1.43-.66c.3-.2.44-.33.45-.32a1.53,1.53,0,0,1-.4.39,5.06,5.06,0,0,1-1.44.74,7,7,0,0,1-2.56.37c-.51,0-1.06-.1-1.62-.12s-1.18,0-1.82,0a83.77,83.77,0,0,0-9.16.75c-.88.11-1.75.29-2.7.44a14.1,14.1,0,0,1-2.91,0A27.51,27.51,0,0,1,84,116.42l.3-.14-3.82,8.87v-.27A27.77,27.77,0,0,0,84.9,129a27.14,27.14,0,0,0,16.1,5.62,13.18,13.18,0,0,0,11.59-6.7,7,7,0,0,0,.71-2.73,20.549,20.549,0,0,0,.07-2.57,37.024,37.024,0,0,0-.29-4.13c-.12-1.13-.23-2-.31-2.6A8.239,8.239,0,0,1,112.67,115Z" fill="#263238"/>
      <path id="Caminho_7296" data-name="Caminho 7296" d="M76.83,108.62h.44a3.93,3.93,0,0,1,1,.55A16,16,0,0,1,81,111.82a18.93,18.93,0,0,1,3,4.37,51.659,51.659,0,0,1-3.43-4,25.66,25.66,0,0,0-2.54-2.69,7.251,7.251,0,0,0-.89-.65C77,108.73,76.83,108.66,76.83,108.62Z" fill="#ebebeb"/>
      <path id="Caminho_7297" data-name="Caminho 7297" d="M81.1,125.35a3.727,3.727,0,0,1-1.25-.51A12.36,12.36,0,0,1,77.16,123a6.93,6.93,0,0,1-1.85-2.72c-.27-.81-.23-1.34-.16-1.35a10.289,10.289,0,0,1,.51,1.22,8,8,0,0,0,1.85,2.46,20.229,20.229,0,0,0,2.53,1.9C80.72,125,81.13,125.28,81.1,125.35Z" fill="#ebebeb"/>
      <path id="Caminho_7298" data-name="Caminho 7298" d="M110.8,128.11a3.23,3.23,0,0,1-.82.51,16.521,16.521,0,0,1-2.41,1,19.34,19.34,0,0,1-16.69-2.1A16.9,16.9,0,0,1,88.8,126a3.18,3.18,0,0,1-.66-.7c.06-.08,1.06.86,2.94,2a20.41,20.41,0,0,0,16.38,2.06C109.55,128.68,110.76,128,110.8,128.11Z" fill="#263238"/>
      <path id="Caminho_7299" data-name="Caminho 7299" d="M110.62,120.89a20.512,20.512,0,0,1-3,0c-1.84-.06-4.39-.1-7.21,0s-5.35.3-7.19.47a19.88,19.88,0,0,1-3,.23,15.158,15.158,0,0,1,3-.59,65.128,65.128,0,0,1,7.22-.63,63.449,63.449,0,0,1,7.24.17,15,15,0,0,1,2.94.35Z" fill="#263238"/>
      <path id="Caminho_7300" data-name="Caminho 7300" d="M89.1,123.31C94,126,99.84,126.1,105.41,126a12.671,12.671,0,0,0,3.13-.33,4.28,4.28,0,0,0,2.54-1.72,124.31,124.31,0,0,1-22.33-.46" fill="#e0e0e0"/>
    </g>
    <g id="freepik--Floor--inject-123">
      <path id="Caminho_7301" data-name="Caminho 7301" d="M475,459.28c0,.14-100.27.26-223.94.26s-224-.12-224-.26S127.3,459,251,459,475,459.13,475,459.28Z" fill="#263238"/>
    </g>
  </g>
</svg>
